%TF.GenerationSoftware,KiCad,Pcbnew,(7.0.0)*%
%TF.CreationDate,2024-02-27T23:11:25+01:00*%
%TF.ProjectId,NEC,4e45432e-6b69-4636-9164-5f7063625858,rev?*%
%TF.SameCoordinates,Original*%
%TF.FileFunction,Soldermask,Bot*%
%TF.FilePolarity,Negative*%
%FSLAX46Y46*%
G04 Gerber Fmt 4.6, Leading zero omitted, Abs format (unit mm)*
G04 Created by KiCad (PCBNEW (7.0.0)) date 2024-02-27 23:11:25*
%MOMM*%
%LPD*%
G01*
G04 APERTURE LIST*
G04 Aperture macros list*
%AMRoundRect*
0 Rectangle with rounded corners*
0 $1 Rounding radius*
0 $2 $3 $4 $5 $6 $7 $8 $9 X,Y pos of 4 corners*
0 Add a 4 corners polygon primitive as box body*
4,1,4,$2,$3,$4,$5,$6,$7,$8,$9,$2,$3,0*
0 Add four circle primitives for the rounded corners*
1,1,$1+$1,$2,$3*
1,1,$1+$1,$4,$5*
1,1,$1+$1,$6,$7*
1,1,$1+$1,$8,$9*
0 Add four rect primitives between the rounded corners*
20,1,$1+$1,$2,$3,$4,$5,0*
20,1,$1+$1,$4,$5,$6,$7,0*
20,1,$1+$1,$6,$7,$8,$9,0*
20,1,$1+$1,$8,$9,$2,$3,0*%
G04 Aperture macros list end*
%ADD10R,1.300000X1.400000*%
%ADD11R,1.400000X1.300000*%
%ADD12C,1.750000*%
%ADD13C,3.987800*%
%ADD14C,2.300000*%
%ADD15C,2.000000*%
%ADD16RoundRect,0.500000X0.500000X-0.500000X0.500000X0.500000X-0.500000X0.500000X-0.500000X-0.500000X0*%
%ADD17RoundRect,0.550000X0.550000X-1.150000X0.550000X1.150000X-0.550000X1.150000X-0.550000X-1.150000X0*%
%ADD18C,3.048000*%
%ADD19C,4.000000*%
%ADD20C,2.200000*%
%ADD21C,1.600000*%
G04 APERTURE END LIST*
D10*
%TO.C,D51*%
X255587499Y-92262499D03*
X255587499Y-88712499D03*
%TD*%
%TO.C,D50*%
X230187499Y-94643749D03*
X230187499Y-91093749D03*
%TD*%
%TO.C,D49*%
X215899999Y-92262499D03*
X215899999Y-88712499D03*
%TD*%
%TO.C,D48*%
X182562499Y-94643749D03*
X182562499Y-91093749D03*
%TD*%
%TO.C,D47*%
X144462499Y-94643749D03*
X144462499Y-91093749D03*
%TD*%
%TO.C,D46*%
X96837499Y-92262499D03*
X96837499Y-88712499D03*
%TD*%
D11*
%TO.C,D45*%
X82362499Y-92074999D03*
X85912499Y-92074999D03*
%TD*%
D10*
%TO.C,D44*%
X65087499Y-92449999D03*
X65087499Y-88899999D03*
%TD*%
%TO.C,D43*%
X306387499Y-75593749D03*
X306387499Y-72043749D03*
%TD*%
%TO.C,D42*%
X282574999Y-72418749D03*
X282574999Y-68868749D03*
%TD*%
%TO.C,D41*%
X263524999Y-75593749D03*
X263524999Y-72043749D03*
%TD*%
%TO.C,D40*%
X244474999Y-72418749D03*
X244474999Y-68868749D03*
%TD*%
%TO.C,D39*%
X225424999Y-75593749D03*
X225424999Y-72043749D03*
%TD*%
%TO.C,D38*%
X206374999Y-72418749D03*
X206374999Y-68868749D03*
%TD*%
%TO.C,D37*%
X195262499Y-75406249D03*
X195262499Y-71856249D03*
%TD*%
D11*
%TO.C,D36*%
X158562499Y-77787499D03*
X162112499Y-77787499D03*
%TD*%
D10*
%TO.C,D35*%
X146811999Y-72418749D03*
X146811999Y-68868749D03*
%TD*%
%TO.C,D34*%
X120649999Y-75593749D03*
X120649999Y-72043749D03*
%TD*%
%TO.C,D33*%
X101599999Y-72418749D03*
X101599999Y-68868749D03*
%TD*%
%TO.C,D32*%
X82549999Y-75593749D03*
X82549999Y-72043749D03*
%TD*%
%TO.C,D31*%
X63499999Y-72418749D03*
X63499999Y-68868749D03*
%TD*%
%TO.C,D30*%
X49212499Y-75593749D03*
X49212499Y-72043749D03*
%TD*%
%TO.C,D29*%
X20637499Y-72418749D03*
X20637499Y-68868749D03*
%TD*%
%TO.C,D28*%
X299211999Y-56670749D03*
X299211999Y-53120749D03*
%TD*%
%TO.C,D27*%
X277812499Y-53368749D03*
X277812499Y-49818749D03*
%TD*%
%TO.C,D26*%
X258762499Y-56543749D03*
X258762499Y-52993749D03*
%TD*%
%TO.C,D25*%
X239712499Y-53368749D03*
X239712499Y-49818749D03*
%TD*%
%TO.C,D24*%
X220662499Y-56543749D03*
X220662499Y-52993749D03*
%TD*%
%TO.C,D23*%
X201612499Y-53368749D03*
X201612499Y-49818749D03*
%TD*%
%TO.C,D22*%
X184149999Y-56543749D03*
X184149999Y-52993749D03*
%TD*%
%TO.C,D21*%
X149224999Y-53368749D03*
X149224999Y-49818749D03*
%TD*%
%TO.C,D20*%
X125412499Y-56543749D03*
X125412499Y-52993749D03*
%TD*%
%TO.C,D19*%
X106362499Y-53368749D03*
X106362499Y-49818749D03*
%TD*%
%TO.C,D18*%
X87312499Y-56543749D03*
X87312499Y-52993749D03*
%TD*%
%TO.C,D17*%
X68262499Y-53368749D03*
X68262499Y-49818749D03*
%TD*%
%TO.C,D16*%
X49212499Y-56543749D03*
X49212499Y-52993749D03*
%TD*%
%TO.C,D15*%
X27812999Y-53368749D03*
X27812999Y-49818749D03*
%TD*%
%TO.C,D14*%
X285749999Y-37430249D03*
X285749999Y-33880249D03*
%TD*%
%TO.C,D13*%
X273049999Y-34318749D03*
X273049999Y-30768749D03*
%TD*%
%TO.C,D12*%
X253999999Y-37493749D03*
X253999999Y-33943749D03*
%TD*%
%TO.C,D11*%
X234949999Y-34318749D03*
X234949999Y-30768749D03*
%TD*%
%TO.C,D10*%
X215899999Y-37493749D03*
X215899999Y-33943749D03*
%TD*%
%TO.C,D9*%
X196849999Y-34318749D03*
X196849999Y-30768749D03*
%TD*%
%TO.C,D8*%
X180085999Y-37493749D03*
X180085999Y-33943749D03*
%TD*%
%TO.C,D7*%
X151510999Y-34318749D03*
X151510999Y-30768749D03*
%TD*%
%TO.C,D6*%
X130174999Y-37493749D03*
X130174999Y-33943749D03*
%TD*%
%TO.C,D5*%
X111124999Y-34318749D03*
X111124999Y-30768749D03*
%TD*%
%TO.C,D4*%
X92074999Y-37493749D03*
X92074999Y-33943749D03*
%TD*%
%TO.C,D3*%
X73024999Y-34318749D03*
X73024999Y-30768749D03*
%TD*%
%TO.C,D2*%
X53974999Y-37493749D03*
X53974999Y-33943749D03*
%TD*%
%TO.C,D1*%
X39687499Y-34318749D03*
X39687499Y-30768749D03*
%TD*%
D12*
%TO.C,SW23*%
X193357500Y-50800000D03*
D13*
X198437500Y-50800000D03*
D12*
X203517500Y-50800000D03*
D14*
X194627500Y-48260000D03*
X200977500Y-45720000D03*
%TD*%
D12*
%TO.C,SW3*%
X64770000Y-31750000D03*
D13*
X69850000Y-31750000D03*
D12*
X74930000Y-31750000D03*
D14*
X66040000Y-29210000D03*
X72390000Y-26670000D03*
%TD*%
D12*
%TO.C,SW37*%
X179070000Y-69850000D03*
D13*
X184150000Y-69850000D03*
D12*
X189230000Y-69850000D03*
D14*
X180340000Y-67310000D03*
X186690000Y-64770000D03*
%TD*%
D12*
%TO.C,SW27*%
X269557500Y-50800000D03*
D13*
X274637500Y-50800000D03*
D12*
X279717500Y-50800000D03*
D14*
X270827500Y-48260000D03*
X277177500Y-45720000D03*
%TD*%
D12*
%TO.C,SW49(3)1*%
X221932500Y-88900000D03*
D13*
X227012500Y-88900000D03*
D12*
X232092500Y-88900000D03*
D14*
X223202500Y-86360000D03*
X229552500Y-83820000D03*
%TD*%
D12*
%TO.C,SW4*%
X83820000Y-31750000D03*
D13*
X88900000Y-31750000D03*
D12*
X93980000Y-31750000D03*
D14*
X85090000Y-29210000D03*
X91440000Y-26670000D03*
%TD*%
D12*
%TO.C,SW25*%
X231457500Y-50800000D03*
D13*
X236537500Y-50800000D03*
D12*
X241617500Y-50800000D03*
D14*
X232727500Y-48260000D03*
X239077500Y-45720000D03*
%TD*%
D12*
%TO.C,SW2*%
X45720000Y-31750000D03*
D13*
X50800000Y-31750000D03*
D12*
X55880000Y-31750000D03*
D14*
X46990000Y-29210000D03*
X53340000Y-26670000D03*
%TD*%
D12*
%TO.C,SW29*%
X12382500Y-69850000D03*
D13*
X17462500Y-69850000D03*
D12*
X22542500Y-69850000D03*
D14*
X13652500Y-67310000D03*
X20002500Y-64770000D03*
%TD*%
D15*
%TO.C,SW54*%
X134025000Y-77350000D03*
X139025000Y-77350000D03*
D16*
X136525000Y-77350000D03*
D17*
X130925000Y-69850000D03*
X142125000Y-69850000D03*
D15*
X139025000Y-62850000D03*
X134025000Y-62850000D03*
%TD*%
D12*
%TO.C,SW41*%
X255270000Y-69850000D03*
D13*
X260350000Y-69850000D03*
D12*
X265430000Y-69850000D03*
D14*
X256540000Y-67310000D03*
X262890000Y-64770000D03*
%TD*%
D12*
%TO.C,SW6*%
X121920000Y-31750000D03*
D13*
X127000000Y-31750000D03*
D12*
X132080000Y-31750000D03*
D14*
X123190000Y-29210000D03*
X129540000Y-26670000D03*
%TD*%
D12*
%TO.C,SW14(iso)1*%
X290989000Y-41275000D03*
D13*
X296069000Y-41275000D03*
D12*
X301149000Y-41275000D03*
D14*
X292259000Y-38735000D03*
X298609000Y-36195000D03*
%TD*%
D12*
%TO.C,SW46*%
X102870000Y-88900000D03*
D13*
X107950000Y-88900000D03*
D12*
X113030000Y-88900000D03*
D14*
X104140000Y-86360000D03*
X110490000Y-83820000D03*
%TD*%
D12*
%TO.C,SW40*%
X236220000Y-69850000D03*
D13*
X241300000Y-69850000D03*
D12*
X246380000Y-69850000D03*
D14*
X237490000Y-67310000D03*
X243840000Y-64770000D03*
%TD*%
D12*
%TO.C,SW46(3)1*%
X88582500Y-88900000D03*
D13*
X93662500Y-88900000D03*
D12*
X98742500Y-88900000D03*
D14*
X89852500Y-86360000D03*
X96202500Y-83820000D03*
%TD*%
D12*
%TO.C,SW44(1.25)1*%
X52865000Y-88900000D03*
D13*
X57945000Y-88900000D03*
D12*
X63025000Y-88900000D03*
D14*
X54135000Y-86360000D03*
X60485000Y-83820000D03*
%TD*%
D12*
%TO.C,SW36*%
X155257500Y-69850000D03*
D13*
X160337500Y-69850000D03*
D12*
X165417500Y-69850000D03*
D14*
X156527500Y-67310000D03*
X162877500Y-64770000D03*
%TD*%
D12*
%TO.C,SW22*%
X169545000Y-50800000D03*
D13*
X174625000Y-50800000D03*
D12*
X179705000Y-50800000D03*
D14*
X170815000Y-48260000D03*
X177165000Y-45720000D03*
%TD*%
D12*
%TO.C,SW26*%
X250507500Y-50800000D03*
D13*
X255587500Y-50800000D03*
D12*
X260667500Y-50800000D03*
D14*
X251777500Y-48260000D03*
X258127500Y-45720000D03*
%TD*%
D12*
%TO.C,SW48*%
X174307500Y-88900000D03*
D13*
X179387500Y-88900000D03*
D12*
X184467500Y-88900000D03*
D14*
X175577500Y-86360000D03*
X181927500Y-83820000D03*
%TD*%
D12*
%TO.C,SW30*%
X36195000Y-69850000D03*
D13*
X41275000Y-69850000D03*
D12*
X46355000Y-69850000D03*
D14*
X37465000Y-67310000D03*
X43815000Y-64770000D03*
%TD*%
D12*
%TO.C,SW10*%
X207645000Y-31750000D03*
D13*
X212725000Y-31750000D03*
D12*
X217805000Y-31750000D03*
D14*
X208915000Y-29210000D03*
X215265000Y-26670000D03*
%TD*%
D12*
%TO.C,SW21(3)1*%
X155257500Y-50800000D03*
D13*
X160337500Y-50800000D03*
D12*
X165417500Y-50800000D03*
D14*
X156527500Y-48260000D03*
X162877500Y-45720000D03*
%TD*%
D12*
%TO.C,SW37(1.75)1*%
X171928000Y-69850000D03*
D13*
X177008000Y-69850000D03*
D12*
X182088000Y-69850000D03*
D14*
X173198000Y-67310000D03*
X179548000Y-64770000D03*
%TD*%
D12*
%TO.C,SW35(1.75)1*%
X138590000Y-69850000D03*
D13*
X143670000Y-69850000D03*
D12*
X148750000Y-69850000D03*
D14*
X139860000Y-67310000D03*
X146210000Y-64770000D03*
%TD*%
D12*
%TO.C,SW15*%
X19526000Y-50800000D03*
D13*
X24606000Y-50800000D03*
D12*
X29686000Y-50800000D03*
D14*
X20796000Y-48260000D03*
X27146000Y-45720000D03*
%TD*%
D15*
%TO.C,SW55*%
X181650000Y-77350000D03*
X186650000Y-77350000D03*
D16*
X184150000Y-77350000D03*
D17*
X178550000Y-69850000D03*
X189750000Y-69850000D03*
D15*
X186650000Y-62850000D03*
X181650000Y-62850000D03*
%TD*%
D12*
%TO.C,SW49*%
X207645000Y-88900000D03*
D13*
X212725000Y-88900000D03*
D12*
X217805000Y-88900000D03*
D14*
X208915000Y-86360000D03*
X215265000Y-83820000D03*
%TD*%
D12*
%TO.C,SW20*%
X117157500Y-50800000D03*
D13*
X122237500Y-50800000D03*
D12*
X127317500Y-50800000D03*
D14*
X118427500Y-48260000D03*
X124777500Y-45720000D03*
%TD*%
D12*
%TO.C,SW42*%
X274320000Y-69850000D03*
D13*
X279400000Y-69850000D03*
D12*
X284480000Y-69850000D03*
D14*
X275590000Y-67310000D03*
X281940000Y-64770000D03*
%TD*%
D12*
%TO.C,SW51(1.25)2*%
X257650000Y-88900000D03*
D13*
X262730000Y-88900000D03*
D12*
X267810000Y-88900000D03*
D14*
X258920000Y-86360000D03*
X265270000Y-83820000D03*
%TD*%
D12*
%TO.C,SW8*%
X167163000Y-31750000D03*
D13*
X172243000Y-31750000D03*
D12*
X177323000Y-31750000D03*
D14*
X168433000Y-29210000D03*
X174783000Y-26670000D03*
%TD*%
D12*
%TO.C,SW16*%
X40957500Y-50800000D03*
D13*
X46037500Y-50800000D03*
D12*
X51117500Y-50800000D03*
D14*
X42227500Y-48260000D03*
X48577500Y-45720000D03*
%TD*%
D18*
%TO.C,S4*%
X246062500Y-95885000D03*
D13*
X246062500Y-80645000D03*
D18*
X207962500Y-95885000D03*
D13*
X207962500Y-80645000D03*
%TD*%
D19*
%TO.C,S1*%
X153193750Y-95885000D03*
D13*
X153193750Y-80645000D03*
D19*
X129381250Y-95885000D03*
D13*
X129381250Y-80645000D03*
%TD*%
D12*
%TO.C,SW50(1.25)1*%
X233838000Y-88900000D03*
D13*
X238918000Y-88900000D03*
D12*
X243998000Y-88900000D03*
D14*
X235108000Y-86360000D03*
X241458000Y-83820000D03*
%TD*%
D12*
%TO.C,SW39*%
X217170000Y-69850000D03*
D13*
X222250000Y-69850000D03*
D12*
X227330000Y-69850000D03*
D14*
X218440000Y-67310000D03*
X224790000Y-64770000D03*
%TD*%
D12*
%TO.C,SW18*%
X79057500Y-50800000D03*
D13*
X84137500Y-50800000D03*
D12*
X89217500Y-50800000D03*
D14*
X80327500Y-48260000D03*
X86677500Y-45720000D03*
%TD*%
D12*
%TO.C,SW50*%
X236220000Y-88900000D03*
D13*
X241300000Y-88900000D03*
D12*
X246380000Y-88900000D03*
D14*
X237490000Y-86360000D03*
X243840000Y-83820000D03*
%TD*%
D12*
%TO.C,SW21*%
X140970000Y-50800000D03*
D13*
X146050000Y-50800000D03*
D12*
X151130000Y-50800000D03*
D14*
X142240000Y-48260000D03*
X148590000Y-45720000D03*
%TD*%
D12*
%TO.C,SW32*%
X74295000Y-69850000D03*
D13*
X79375000Y-69850000D03*
D12*
X84455000Y-69850000D03*
D14*
X75565000Y-67310000D03*
X81915000Y-64770000D03*
%TD*%
D12*
%TO.C,SW45*%
X74295000Y-88900000D03*
D13*
X79375000Y-88900000D03*
D12*
X84455000Y-88900000D03*
D14*
X75565000Y-86360000D03*
X81915000Y-83820000D03*
%TD*%
D12*
%TO.C,SW24*%
X212407500Y-50800000D03*
D13*
X217487500Y-50800000D03*
D12*
X222567500Y-50800000D03*
D14*
X213677500Y-48260000D03*
X220027500Y-45720000D03*
%TD*%
D15*
%TO.C,SW52*%
X145931000Y-39250000D03*
X150931000Y-39250000D03*
D16*
X148431000Y-39250000D03*
D17*
X142831000Y-31750000D03*
X154031000Y-31750000D03*
D15*
X150931000Y-24750000D03*
X145931000Y-24750000D03*
%TD*%
D12*
%TO.C,SW44*%
X50482500Y-88900000D03*
D13*
X55562500Y-88900000D03*
D12*
X60642500Y-88900000D03*
D14*
X51752500Y-86360000D03*
X58102500Y-83820000D03*
%TD*%
D12*
%TO.C,SW12*%
X245745000Y-31750000D03*
D13*
X250825000Y-31750000D03*
D12*
X255905000Y-31750000D03*
D14*
X247015000Y-29210000D03*
X253365000Y-26670000D03*
%TD*%
D12*
%TO.C,SW9*%
X188595000Y-31750000D03*
D13*
X193675000Y-31750000D03*
D12*
X198755000Y-31750000D03*
D14*
X189865000Y-29210000D03*
X196215000Y-26670000D03*
%TD*%
D12*
%TO.C,SW1*%
X21907500Y-31750000D03*
D13*
X26987500Y-31750000D03*
D12*
X32067500Y-31750000D03*
D14*
X23177500Y-29210000D03*
X29527500Y-26670000D03*
%TD*%
D15*
%TO.C,SW53*%
X169743000Y-39250000D03*
X174743000Y-39250000D03*
D16*
X172243000Y-39250000D03*
D17*
X166643000Y-31750000D03*
X177843000Y-31750000D03*
D15*
X174743000Y-24750000D03*
X169743000Y-24750000D03*
%TD*%
D18*
%TO.C,S3*%
X112712500Y-95885000D03*
D13*
X112712500Y-80645000D03*
D18*
X74612500Y-95885000D03*
D13*
X74612500Y-80645000D03*
%TD*%
D12*
%TO.C,SW7*%
X143351000Y-31750000D03*
D13*
X148431000Y-31750000D03*
D12*
X153511000Y-31750000D03*
D14*
X144621000Y-29210000D03*
X150971000Y-26670000D03*
%TD*%
D12*
%TO.C,SW44(4)1*%
X155257500Y-88900000D03*
D13*
X160337500Y-88900000D03*
D12*
X165417500Y-88900000D03*
D20*
X156527500Y-86360000D03*
X162877500Y-83820000D03*
%TD*%
D12*
%TO.C,SW19*%
X98107500Y-50800000D03*
D13*
X103187500Y-50800000D03*
D12*
X108267500Y-50800000D03*
D14*
X99377500Y-48260000D03*
X105727500Y-45720000D03*
%TD*%
D12*
%TO.C,SW43*%
X298132500Y-69850000D03*
D13*
X303212500Y-69850000D03*
D12*
X308292500Y-69850000D03*
D14*
X299402500Y-67310000D03*
X305752500Y-64770000D03*
%TD*%
D12*
%TO.C,SW47*%
X136207500Y-88900000D03*
D13*
X141287500Y-88900000D03*
D12*
X146367500Y-88900000D03*
D14*
X137477500Y-86360000D03*
X143827500Y-83820000D03*
%TD*%
D19*
%TO.C,S2*%
X191293750Y-95885000D03*
D13*
X191293750Y-80645000D03*
D19*
X167481250Y-95885000D03*
D13*
X167481250Y-80645000D03*
%TD*%
%TO.C,S6*%
X287814000Y-29368750D03*
X287814000Y-53181250D03*
D18*
X303054000Y-29368750D03*
X303054000Y-53181250D03*
%TD*%
D12*
%TO.C,SW34*%
X112395000Y-69850000D03*
D13*
X117475000Y-69850000D03*
D12*
X122555000Y-69850000D03*
D14*
X113665000Y-67310000D03*
X120015000Y-64770000D03*
%TD*%
D12*
%TO.C,SW35*%
X131445000Y-69850000D03*
D13*
X136525000Y-69850000D03*
D12*
X141605000Y-69850000D03*
D14*
X132715000Y-67310000D03*
X139065000Y-64770000D03*
%TD*%
D12*
%TO.C,SW38*%
X198120000Y-69850000D03*
D13*
X203200000Y-69850000D03*
D12*
X208280000Y-69850000D03*
D14*
X199390000Y-67310000D03*
X205740000Y-64770000D03*
%TD*%
D12*
%TO.C,SW17*%
X60007500Y-50800000D03*
D13*
X65087500Y-50800000D03*
D12*
X70167500Y-50800000D03*
D14*
X61277500Y-48260000D03*
X67627500Y-45720000D03*
%TD*%
D12*
%TO.C,SW5*%
X102870000Y-31750000D03*
D13*
X107950000Y-31750000D03*
D12*
X113030000Y-31750000D03*
D14*
X104140000Y-29210000D03*
X110490000Y-26670000D03*
%TD*%
D12*
%TO.C,SW51*%
X260032500Y-88900000D03*
D13*
X265112500Y-88900000D03*
D12*
X270192500Y-88900000D03*
D14*
X261302500Y-86360000D03*
X267652500Y-83820000D03*
%TD*%
D12*
%TO.C,SW14*%
X288608000Y-31750000D03*
D13*
X293688000Y-31750000D03*
D12*
X298768000Y-31750000D03*
D14*
X289878000Y-29210000D03*
X296228000Y-26670000D03*
%TD*%
D12*
%TO.C,SW13*%
X264795000Y-31750000D03*
D13*
X269875000Y-31750000D03*
D12*
X274955000Y-31750000D03*
D14*
X266065000Y-29210000D03*
X272415000Y-26670000D03*
%TD*%
D12*
%TO.C,SW28*%
X290988500Y-50800000D03*
D13*
X296068500Y-50800000D03*
D12*
X301148500Y-50800000D03*
D14*
X292258500Y-48260000D03*
X298608500Y-45720000D03*
%TD*%
D12*
%TO.C,SW33*%
X93345000Y-69850000D03*
D13*
X98425000Y-69850000D03*
D12*
X103505000Y-69850000D03*
D14*
X94615000Y-67310000D03*
X100965000Y-64770000D03*
%TD*%
D12*
%TO.C,SW45(1.25)1*%
X76677000Y-88900000D03*
D13*
X81757000Y-88900000D03*
D12*
X86837000Y-88900000D03*
D14*
X77947000Y-86360000D03*
X84297000Y-83820000D03*
%TD*%
D18*
%TO.C,S5*%
X141287500Y-43815000D03*
D13*
X141287500Y-59055000D03*
D18*
X179387500Y-43815000D03*
D13*
X179387500Y-59055000D03*
%TD*%
D12*
%TO.C,SW31*%
X55245000Y-69850000D03*
D13*
X60325000Y-69850000D03*
D12*
X65405000Y-69850000D03*
D14*
X56515000Y-67310000D03*
X62865000Y-64770000D03*
%TD*%
D12*
%TO.C,SW11*%
X226695000Y-31750000D03*
D13*
X231775000Y-31750000D03*
D12*
X236855000Y-31750000D03*
D14*
X227965000Y-29210000D03*
X234315000Y-26670000D03*
%TD*%
D21*
%TO.C,RZ1*%
X19272500Y-21990000D03*
X19272500Y-24530000D03*
X19272500Y-27070000D03*
X19272500Y-29610000D03*
X19272500Y-32150000D03*
X19272500Y-34690000D03*
X19272500Y-37230000D03*
X19272500Y-39770000D03*
X19272500Y-42310000D03*
X21812500Y-42520000D03*
X24352500Y-42520000D03*
X26892500Y-42520000D03*
X29432500Y-42520000D03*
X31972500Y-42520000D03*
X34512500Y-42310000D03*
X34512500Y-39770000D03*
X34512500Y-37230000D03*
X34512500Y-34690000D03*
X34512500Y-32150000D03*
X34512500Y-29610000D03*
X34512500Y-27070000D03*
X34512500Y-21990000D03*
X34512500Y-24530000D03*
%TD*%
M02*
