%TF.GenerationSoftware,KiCad,Pcbnew,(7.0.0)*%
%TF.CreationDate,2024-02-27T23:11:25+01:00*%
%TF.ProjectId,NEC,4e45432e-6b69-4636-9164-5f7063625858,rev?*%
%TF.SameCoordinates,Original*%
%TF.FileFunction,Soldermask,Top*%
%TF.FilePolarity,Negative*%
%FSLAX46Y46*%
G04 Gerber Fmt 4.6, Leading zero omitted, Abs format (unit mm)*
G04 Created by KiCad (PCBNEW (7.0.0)) date 2024-02-27 23:11:25*
%MOMM*%
%LPD*%
G01*
G04 APERTURE LIST*
%ADD10R,1.300000X1.778000*%
%ADD11O,1.300000X1.778000*%
%ADD12O,1.778000X1.300000*%
%ADD13R,1.778000X1.300000*%
%ADD14C,1.750000*%
%ADD15C,3.987800*%
%ADD16C,3.048000*%
%ADD17C,2.200000*%
%ADD18C,1.600000*%
G04 APERTURE END LIST*
D10*
%TO.C,D51*%
X255587499Y-93487499D03*
D11*
X255587499Y-87487499D03*
%TD*%
D10*
%TO.C,D50*%
X230187499Y-95868749D03*
D11*
X230187499Y-89868749D03*
%TD*%
D10*
%TO.C,D49*%
X215899999Y-93487499D03*
D11*
X215899999Y-87487499D03*
%TD*%
D10*
%TO.C,D48*%
X182562499Y-95868749D03*
D11*
X182562499Y-89868749D03*
%TD*%
D10*
%TO.C,D47*%
X144462499Y-95868749D03*
D11*
X144462499Y-89868749D03*
%TD*%
D10*
%TO.C,D46*%
X96837499Y-93487499D03*
D11*
X96837499Y-87487499D03*
%TD*%
D12*
%TO.C,D45*%
X81137499Y-92074999D03*
D13*
X87137499Y-92074999D03*
%TD*%
D10*
%TO.C,D44*%
X65087499Y-93674999D03*
D11*
X65087499Y-87674999D03*
%TD*%
D10*
%TO.C,D43*%
X306387499Y-76818749D03*
D11*
X306387499Y-70818749D03*
%TD*%
D10*
%TO.C,D42*%
X282574999Y-73643749D03*
D11*
X282574999Y-67643749D03*
%TD*%
D10*
%TO.C,D41*%
X263524999Y-76818749D03*
D11*
X263524999Y-70818749D03*
%TD*%
D10*
%TO.C,D40*%
X244474999Y-73643749D03*
D11*
X244474999Y-67643749D03*
%TD*%
D10*
%TO.C,D39*%
X225424999Y-76818749D03*
D11*
X225424999Y-70818749D03*
%TD*%
D10*
%TO.C,D38*%
X206374999Y-73643749D03*
D11*
X206374999Y-67643749D03*
%TD*%
D10*
%TO.C,D37*%
X195262499Y-76631249D03*
D11*
X195262499Y-70631249D03*
%TD*%
D13*
%TO.C,D36*%
X157337499Y-77787499D03*
D12*
X163337499Y-77787499D03*
%TD*%
D10*
%TO.C,D35*%
X146811999Y-73643749D03*
D11*
X146811999Y-67643749D03*
%TD*%
D10*
%TO.C,D34*%
X120649999Y-76818749D03*
D11*
X120649999Y-70818749D03*
%TD*%
D10*
%TO.C,D33*%
X101599999Y-73643749D03*
D11*
X101599999Y-67643749D03*
%TD*%
D10*
%TO.C,D32*%
X82549999Y-76818749D03*
D11*
X82549999Y-70818749D03*
%TD*%
D10*
%TO.C,D31*%
X63499999Y-73643749D03*
D11*
X63499999Y-67643749D03*
%TD*%
D10*
%TO.C,D30*%
X49212499Y-76818749D03*
D11*
X49212499Y-70818749D03*
%TD*%
D10*
%TO.C,D29*%
X20637499Y-73643749D03*
D11*
X20637499Y-67643749D03*
%TD*%
D10*
%TO.C,D28*%
X299211999Y-57895749D03*
D11*
X299211999Y-51895749D03*
%TD*%
D10*
%TO.C,D27*%
X277812499Y-54593749D03*
D11*
X277812499Y-48593749D03*
%TD*%
D10*
%TO.C,D26*%
X258762499Y-57768749D03*
D11*
X258762499Y-51768749D03*
%TD*%
D10*
%TO.C,D25*%
X239712499Y-54593749D03*
D11*
X239712499Y-48593749D03*
%TD*%
D10*
%TO.C,D24*%
X220662499Y-57768749D03*
D11*
X220662499Y-51768749D03*
%TD*%
D10*
%TO.C,D23*%
X201612499Y-54593749D03*
D11*
X201612499Y-48593749D03*
%TD*%
D10*
%TO.C,D22*%
X184149999Y-57768749D03*
D11*
X184149999Y-51768749D03*
%TD*%
D10*
%TO.C,D21*%
X149224999Y-54593749D03*
D11*
X149224999Y-48593749D03*
%TD*%
D10*
%TO.C,D20*%
X125412499Y-57768749D03*
D11*
X125412499Y-51768749D03*
%TD*%
D10*
%TO.C,D19*%
X106362499Y-54593749D03*
D11*
X106362499Y-48593749D03*
%TD*%
D10*
%TO.C,D18*%
X87312499Y-57768749D03*
D11*
X87312499Y-51768749D03*
%TD*%
D10*
%TO.C,D17*%
X68262499Y-54593749D03*
D11*
X68262499Y-48593749D03*
%TD*%
D10*
%TO.C,D16*%
X49212499Y-57768749D03*
D11*
X49212499Y-51768749D03*
%TD*%
D10*
%TO.C,D15*%
X27812999Y-54593749D03*
D11*
X27812999Y-48593749D03*
%TD*%
D10*
%TO.C,D14*%
X285749999Y-38655249D03*
D11*
X285749999Y-32655249D03*
%TD*%
D10*
%TO.C,D13*%
X273049999Y-35543749D03*
D11*
X273049999Y-29543749D03*
%TD*%
D10*
%TO.C,D12*%
X253999999Y-38718749D03*
D11*
X253999999Y-32718749D03*
%TD*%
D10*
%TO.C,D11*%
X234949999Y-35543749D03*
D11*
X234949999Y-29543749D03*
%TD*%
D10*
%TO.C,D10*%
X215899999Y-38718749D03*
D11*
X215899999Y-32718749D03*
%TD*%
D10*
%TO.C,D9*%
X196849999Y-35543749D03*
D11*
X196849999Y-29543749D03*
%TD*%
D10*
%TO.C,D8*%
X180085999Y-38718749D03*
D11*
X180085999Y-32718749D03*
%TD*%
D10*
%TO.C,D7*%
X151510999Y-35543749D03*
D11*
X151510999Y-29543749D03*
%TD*%
D10*
%TO.C,D6*%
X130174999Y-38718749D03*
D11*
X130174999Y-32718749D03*
%TD*%
D10*
%TO.C,D5*%
X111124999Y-35543749D03*
D11*
X111124999Y-29543749D03*
%TD*%
D10*
%TO.C,D4*%
X92074999Y-38718749D03*
D11*
X92074999Y-32718749D03*
%TD*%
D10*
%TO.C,D3*%
X73024999Y-35543749D03*
D11*
X73024999Y-29543749D03*
%TD*%
D10*
%TO.C,D2*%
X53974999Y-38718749D03*
D11*
X53974999Y-32718749D03*
%TD*%
D10*
%TO.C,D1*%
X39687499Y-35543749D03*
D11*
X39687499Y-29543749D03*
%TD*%
D14*
%TO.C,SW23*%
X193357500Y-50800000D03*
D15*
X198437500Y-50800000D03*
D14*
X203517500Y-50800000D03*
%TD*%
%TO.C,SW3*%
X64770000Y-31750000D03*
D15*
X69850000Y-31750000D03*
D14*
X74930000Y-31750000D03*
%TD*%
%TO.C,SW37*%
X179070000Y-69850000D03*
D15*
X184150000Y-69850000D03*
D14*
X189230000Y-69850000D03*
%TD*%
%TO.C,SW27*%
X269557500Y-50800000D03*
D15*
X274637500Y-50800000D03*
D14*
X279717500Y-50800000D03*
%TD*%
%TO.C,SW49(3)1*%
X221932500Y-88900000D03*
D15*
X227012500Y-88900000D03*
D14*
X232092500Y-88900000D03*
%TD*%
%TO.C,SW4*%
X83820000Y-31750000D03*
D15*
X88900000Y-31750000D03*
D14*
X93980000Y-31750000D03*
%TD*%
%TO.C,SW25*%
X231457500Y-50800000D03*
D15*
X236537500Y-50800000D03*
D14*
X241617500Y-50800000D03*
%TD*%
%TO.C,SW2*%
X45720000Y-31750000D03*
D15*
X50800000Y-31750000D03*
D14*
X55880000Y-31750000D03*
%TD*%
%TO.C,SW29*%
X12382500Y-69850000D03*
D15*
X17462500Y-69850000D03*
D14*
X22542500Y-69850000D03*
%TD*%
%TO.C,SW41*%
X255270000Y-69850000D03*
D15*
X260350000Y-69850000D03*
D14*
X265430000Y-69850000D03*
%TD*%
%TO.C,SW6*%
X121920000Y-31750000D03*
D15*
X127000000Y-31750000D03*
D14*
X132080000Y-31750000D03*
%TD*%
%TO.C,SW14(iso)1*%
X290989000Y-41275000D03*
D15*
X296069000Y-41275000D03*
D14*
X301149000Y-41275000D03*
%TD*%
%TO.C,SW46*%
X102870000Y-88900000D03*
D15*
X107950000Y-88900000D03*
D14*
X113030000Y-88900000D03*
%TD*%
%TO.C,SW40*%
X236220000Y-69850000D03*
D15*
X241300000Y-69850000D03*
D14*
X246380000Y-69850000D03*
%TD*%
%TO.C,SW46(3)1*%
X88582500Y-88900000D03*
D15*
X93662500Y-88900000D03*
D14*
X98742500Y-88900000D03*
%TD*%
%TO.C,SW44(1.25)1*%
X52865000Y-88900000D03*
D15*
X57945000Y-88900000D03*
D14*
X63025000Y-88900000D03*
%TD*%
%TO.C,SW36*%
X155257500Y-69850000D03*
D15*
X160337500Y-69850000D03*
D14*
X165417500Y-69850000D03*
%TD*%
%TO.C,SW22*%
X169545000Y-50800000D03*
D15*
X174625000Y-50800000D03*
D14*
X179705000Y-50800000D03*
%TD*%
%TO.C,SW26*%
X250507500Y-50800000D03*
D15*
X255587500Y-50800000D03*
D14*
X260667500Y-50800000D03*
%TD*%
%TO.C,SW48*%
X174307500Y-88900000D03*
D15*
X179387500Y-88900000D03*
D14*
X184467500Y-88900000D03*
%TD*%
%TO.C,SW30*%
X36195000Y-69850000D03*
D15*
X41275000Y-69850000D03*
D14*
X46355000Y-69850000D03*
%TD*%
%TO.C,SW10*%
X207645000Y-31750000D03*
D15*
X212725000Y-31750000D03*
D14*
X217805000Y-31750000D03*
%TD*%
%TO.C,SW21(3)1*%
X155257500Y-50800000D03*
D15*
X160337500Y-50800000D03*
D14*
X165417500Y-50800000D03*
%TD*%
%TO.C,SW37(1.75)1*%
X171928000Y-69850000D03*
D15*
X177008000Y-69850000D03*
D14*
X182088000Y-69850000D03*
%TD*%
%TO.C,SW35(1.75)1*%
X138590000Y-69850000D03*
D15*
X143670000Y-69850000D03*
D14*
X148750000Y-69850000D03*
%TD*%
%TO.C,SW15*%
X19526000Y-50800000D03*
D15*
X24606000Y-50800000D03*
D14*
X29686000Y-50800000D03*
%TD*%
%TO.C,SW49*%
X207645000Y-88900000D03*
D15*
X212725000Y-88900000D03*
D14*
X217805000Y-88900000D03*
%TD*%
%TO.C,SW20*%
X117157500Y-50800000D03*
D15*
X122237500Y-50800000D03*
D14*
X127317500Y-50800000D03*
%TD*%
%TO.C,SW42*%
X274320000Y-69850000D03*
D15*
X279400000Y-69850000D03*
D14*
X284480000Y-69850000D03*
%TD*%
%TO.C,SW51(1.25)2*%
X257650000Y-88900000D03*
D15*
X262730000Y-88900000D03*
D14*
X267810000Y-88900000D03*
%TD*%
%TO.C,SW8*%
X167163000Y-31750000D03*
D15*
X172243000Y-31750000D03*
D14*
X177323000Y-31750000D03*
%TD*%
%TO.C,SW16*%
X40957500Y-50800000D03*
D15*
X46037500Y-50800000D03*
D14*
X51117500Y-50800000D03*
%TD*%
D16*
%TO.C,S4*%
X246062500Y-95885000D03*
D15*
X246062500Y-80645000D03*
D16*
X207962500Y-95885000D03*
D15*
X207962500Y-80645000D03*
%TD*%
%TO.C,S1*%
X153193750Y-80645000D03*
X129381250Y-80645000D03*
%TD*%
D14*
%TO.C,SW50(1.25)1*%
X233838000Y-88900000D03*
D15*
X238918000Y-88900000D03*
D14*
X243998000Y-88900000D03*
%TD*%
%TO.C,SW39*%
X217170000Y-69850000D03*
D15*
X222250000Y-69850000D03*
D14*
X227330000Y-69850000D03*
%TD*%
%TO.C,SW18*%
X79057500Y-50800000D03*
D15*
X84137500Y-50800000D03*
D14*
X89217500Y-50800000D03*
%TD*%
%TO.C,SW50*%
X236220000Y-88900000D03*
D15*
X241300000Y-88900000D03*
D14*
X246380000Y-88900000D03*
%TD*%
%TO.C,SW21*%
X140970000Y-50800000D03*
D15*
X146050000Y-50800000D03*
D14*
X151130000Y-50800000D03*
%TD*%
%TO.C,SW32*%
X74295000Y-69850000D03*
D15*
X79375000Y-69850000D03*
D14*
X84455000Y-69850000D03*
%TD*%
%TO.C,SW45*%
X74295000Y-88900000D03*
D15*
X79375000Y-88900000D03*
D14*
X84455000Y-88900000D03*
%TD*%
%TO.C,SW24*%
X212407500Y-50800000D03*
D15*
X217487500Y-50800000D03*
D14*
X222567500Y-50800000D03*
%TD*%
%TO.C,SW44*%
X50482500Y-88900000D03*
D15*
X55562500Y-88900000D03*
D14*
X60642500Y-88900000D03*
%TD*%
%TO.C,SW12*%
X245745000Y-31750000D03*
D15*
X250825000Y-31750000D03*
D14*
X255905000Y-31750000D03*
%TD*%
%TO.C,SW9*%
X188595000Y-31750000D03*
D15*
X193675000Y-31750000D03*
D14*
X198755000Y-31750000D03*
%TD*%
%TO.C,SW1*%
X21907500Y-31750000D03*
D15*
X26987500Y-31750000D03*
D14*
X32067500Y-31750000D03*
%TD*%
D16*
%TO.C,S3*%
X112712500Y-95885000D03*
D15*
X112712500Y-80645000D03*
D16*
X74612500Y-95885000D03*
D15*
X74612500Y-80645000D03*
%TD*%
D14*
%TO.C,SW7*%
X143351000Y-31750000D03*
D15*
X148431000Y-31750000D03*
D14*
X153511000Y-31750000D03*
%TD*%
%TO.C,SW44(4)1*%
X155257500Y-88900000D03*
D15*
X160337500Y-88900000D03*
D14*
X165417500Y-88900000D03*
D17*
X156527500Y-86360000D03*
X162877500Y-83820000D03*
%TD*%
D14*
%TO.C,SW19*%
X98107500Y-50800000D03*
D15*
X103187500Y-50800000D03*
D14*
X108267500Y-50800000D03*
%TD*%
%TO.C,SW43*%
X298132500Y-69850000D03*
D15*
X303212500Y-69850000D03*
D14*
X308292500Y-69850000D03*
%TD*%
%TO.C,SW47*%
X136207500Y-88900000D03*
D15*
X141287500Y-88900000D03*
D14*
X146367500Y-88900000D03*
%TD*%
D15*
%TO.C,S2*%
X191293750Y-80645000D03*
X167481250Y-80645000D03*
%TD*%
%TO.C,S6*%
X287814000Y-29368750D03*
X287814000Y-53181250D03*
D16*
X303054000Y-29368750D03*
X303054000Y-53181250D03*
%TD*%
D14*
%TO.C,SW34*%
X112395000Y-69850000D03*
D15*
X117475000Y-69850000D03*
D14*
X122555000Y-69850000D03*
%TD*%
%TO.C,SW35*%
X131445000Y-69850000D03*
D15*
X136525000Y-69850000D03*
D14*
X141605000Y-69850000D03*
%TD*%
%TO.C,SW38*%
X198120000Y-69850000D03*
D15*
X203200000Y-69850000D03*
D14*
X208280000Y-69850000D03*
%TD*%
%TO.C,SW17*%
X60007500Y-50800000D03*
D15*
X65087500Y-50800000D03*
D14*
X70167500Y-50800000D03*
%TD*%
%TO.C,SW5*%
X102870000Y-31750000D03*
D15*
X107950000Y-31750000D03*
D14*
X113030000Y-31750000D03*
%TD*%
%TO.C,SW51*%
X260032500Y-88900000D03*
D15*
X265112500Y-88900000D03*
D14*
X270192500Y-88900000D03*
%TD*%
%TO.C,SW14*%
X288608000Y-31750000D03*
D15*
X293688000Y-31750000D03*
D14*
X298768000Y-31750000D03*
%TD*%
%TO.C,SW13*%
X264795000Y-31750000D03*
D15*
X269875000Y-31750000D03*
D14*
X274955000Y-31750000D03*
%TD*%
%TO.C,SW28*%
X290988500Y-50800000D03*
D15*
X296068500Y-50800000D03*
D14*
X301148500Y-50800000D03*
%TD*%
%TO.C,SW33*%
X93345000Y-69850000D03*
D15*
X98425000Y-69850000D03*
D14*
X103505000Y-69850000D03*
%TD*%
%TO.C,SW45(1.25)1*%
X76677000Y-88900000D03*
D15*
X81757000Y-88900000D03*
D14*
X86837000Y-88900000D03*
%TD*%
D16*
%TO.C,S5*%
X141287500Y-43815000D03*
D15*
X141287500Y-59055000D03*
D16*
X179387500Y-43815000D03*
D15*
X179387500Y-59055000D03*
%TD*%
D14*
%TO.C,SW31*%
X55245000Y-69850000D03*
D15*
X60325000Y-69850000D03*
D14*
X65405000Y-69850000D03*
%TD*%
%TO.C,SW11*%
X226695000Y-31750000D03*
D15*
X231775000Y-31750000D03*
D14*
X236855000Y-31750000D03*
%TD*%
D18*
%TO.C,RZ1*%
X19272500Y-21990000D03*
X19272500Y-24530000D03*
X19272500Y-27070000D03*
X19272500Y-29610000D03*
X19272500Y-32150000D03*
X19272500Y-34690000D03*
X19272500Y-37230000D03*
X19272500Y-39770000D03*
X19272500Y-42310000D03*
X21812500Y-42520000D03*
X24352500Y-42520000D03*
X26892500Y-42520000D03*
X29432500Y-42520000D03*
X31972500Y-42520000D03*
X34512500Y-42310000D03*
X34512500Y-39770000D03*
X34512500Y-37230000D03*
X34512500Y-34690000D03*
X34512500Y-32150000D03*
X34512500Y-29610000D03*
X34512500Y-27070000D03*
X34512500Y-21990000D03*
X34512500Y-24530000D03*
%TD*%
M02*
