%TF.GenerationSoftware,KiCad,Pcbnew,(7.0.0)*%
%TF.CreationDate,2023-03-05T01:34:00+01:00*%
%TF.ProjectId,NEC,4e45432e-6b69-4636-9164-5f7063625858,rev?*%
%TF.SameCoordinates,Original*%
%TF.FileFunction,Profile,NP*%
%FSLAX46Y46*%
G04 Gerber Fmt 4.6, Leading zero omitted, Abs format (unit mm)*
G04 Created by KiCad (PCBNEW (7.0.0)) date 2023-03-05 01:34:00*
%MOMM*%
%LPD*%
G01*
G04 APERTURE LIST*
%TA.AperFunction,Profile*%
%ADD10C,0.100000*%
%TD*%
G04 APERTURE END LIST*
D10*
X273409901Y-98432033D02*
X46990000Y-98432033D01*
X13843000Y-20947967D02*
X306824967Y-20947967D01*
X45851301Y-97293334D02*
X45851301Y-80285099D01*
X274559934Y-80532066D02*
X274559934Y-97282000D01*
X316349967Y-79382033D02*
X275709967Y-79382033D01*
X317500000Y-61475033D02*
X317500000Y-78232000D01*
X309125033Y-60325000D02*
X316349967Y-60325000D01*
X317500000Y-61475033D02*
G75*
G03*
X316349967Y-60325000I-1150033J0D01*
G01*
X307975000Y-22098000D02*
X307975000Y-59174967D01*
X12692967Y-59174967D02*
X12692967Y-22098000D01*
X4318000Y-60317967D02*
X11549967Y-60317967D01*
X13843000Y-20947967D02*
G75*
G03*
X12692967Y-22098000I0J-1150033D01*
G01*
X307975000Y-22098000D02*
G75*
G03*
X306824967Y-20947967I-1150033J0D01*
G01*
X307975000Y-59174967D02*
G75*
G03*
X309125033Y-60325000I1150033J0D01*
G01*
X11549967Y-60317967D02*
G75*
G03*
X12692967Y-59174967I0J1143000D01*
G01*
X316349967Y-79382033D02*
G75*
G03*
X317500000Y-78232000I0J1150033D01*
G01*
X275709967Y-79382033D02*
G75*
G03*
X274559934Y-80532066I0J-1150033D01*
G01*
X273409901Y-98432033D02*
G75*
G03*
X274559934Y-97282000I0J1150033D01*
G01*
X4318000Y-79382033D02*
X44948235Y-79382033D01*
X3167967Y-61468000D02*
X3167967Y-78232000D01*
X45851301Y-80285099D02*
G75*
G03*
X44948235Y-79382033I-903066J0D01*
G01*
X45851301Y-97293334D02*
G75*
G03*
X46990000Y-98432033I1138699J0D01*
G01*
X3167967Y-78232000D02*
G75*
G03*
X4318000Y-79382033I1150033J0D01*
G01*
X4318000Y-60317967D02*
G75*
G03*
X3167967Y-61468000I0J-1150033D01*
G01*
M02*
