%TF.GenerationSoftware,KiCad,Pcbnew,(7.0.0)*%
%TF.CreationDate,2023-03-05T01:34:00+01:00*%
%TF.ProjectId,NEC,4e45432e-6b69-4636-9164-5f7063625858,rev?*%
%TF.SameCoordinates,Original*%
%TF.FileFunction,Legend,Top*%
%TF.FilePolarity,Positive*%
%FSLAX46Y46*%
G04 Gerber Fmt 4.6, Leading zero omitted, Abs format (unit mm)*
G04 Created by KiCad (PCBNEW (7.0.0)) date 2023-03-05 01:34:00*
%MOMM*%
%LPD*%
G01*
G04 APERTURE LIST*
%ADD10C,0.120000*%
%ADD11R,1.600000X1.600000*%
%ADD12C,1.600000*%
G04 APERTURE END LIST*
D10*
%TO.C,SW55*%
X184450000Y-75350000D02*
X184150000Y-75650000D01*
X183850000Y-75350000D02*
X184450000Y-75350000D01*
X190050000Y-63750000D02*
X190050000Y-67850000D01*
X190050000Y-71850000D02*
X190050000Y-75950000D01*
X178250000Y-67850000D02*
X178250000Y-63750000D01*
X184150000Y-75650000D02*
X183850000Y-75350000D01*
X178250000Y-63750000D02*
X180650000Y-63750000D01*
X187650000Y-63750000D02*
X190050000Y-63750000D01*
X178250000Y-71850000D02*
X178250000Y-75950000D01*
X182850000Y-63750000D02*
X185450000Y-63750000D01*
X178250000Y-75950000D02*
X190050000Y-75950000D01*
X186150000Y-69850000D02*
G75*
G03*
X186150000Y-69850000I-2000000J0D01*
G01*
%TO.C,SW54*%
X136825000Y-75350000D02*
X136525000Y-75650000D01*
X136225000Y-75350000D02*
X136825000Y-75350000D01*
X142425000Y-63750000D02*
X142425000Y-67850000D01*
X142425000Y-71850000D02*
X142425000Y-75950000D01*
X130625000Y-67850000D02*
X130625000Y-63750000D01*
X136525000Y-75650000D02*
X136225000Y-75350000D01*
X130625000Y-63750000D02*
X133025000Y-63750000D01*
X140025000Y-63750000D02*
X142425000Y-63750000D01*
X130625000Y-71850000D02*
X130625000Y-75950000D01*
X135225000Y-63750000D02*
X137825000Y-63750000D01*
X130625000Y-75950000D02*
X142425000Y-75950000D01*
X138525000Y-69850000D02*
G75*
G03*
X138525000Y-69850000I-2000000J0D01*
G01*
%TO.C,SW44(4)1*%
X167337500Y-95900000D02*
X153337500Y-95900000D01*
X167337500Y-81900000D02*
X167337500Y-95900000D01*
X153337500Y-81900000D02*
X167337500Y-81900000D01*
X153337500Y-81900000D02*
X153337500Y-95900000D01*
%TO.C,SW52*%
X142531000Y-25650000D02*
X144931000Y-25650000D01*
X142531000Y-29750000D02*
X142531000Y-25650000D01*
X142531000Y-33750000D02*
X142531000Y-37850000D01*
X142531000Y-37850000D02*
X154331000Y-37850000D01*
X147131000Y-25650000D02*
X149731000Y-25650000D01*
X148131000Y-37250000D02*
X148731000Y-37250000D01*
X148431000Y-37550000D02*
X148131000Y-37250000D01*
X148731000Y-37250000D02*
X148431000Y-37550000D01*
X151931000Y-25650000D02*
X154331000Y-25650000D01*
X154331000Y-25650000D02*
X154331000Y-29750000D01*
X154331000Y-33750000D02*
X154331000Y-37850000D01*
X150431000Y-31750000D02*
G75*
G03*
X150431000Y-31750000I-2000000J0D01*
G01*
%TO.C,SW53*%
X166343000Y-25650000D02*
X168743000Y-25650000D01*
X166343000Y-29750000D02*
X166343000Y-25650000D01*
X166343000Y-33750000D02*
X166343000Y-37850000D01*
X166343000Y-37850000D02*
X178143000Y-37850000D01*
X170943000Y-25650000D02*
X173543000Y-25650000D01*
X171943000Y-37250000D02*
X172543000Y-37250000D01*
X172243000Y-37550000D02*
X171943000Y-37250000D01*
X172543000Y-37250000D02*
X172243000Y-37550000D01*
X175743000Y-25650000D02*
X178143000Y-25650000D01*
X178143000Y-25650000D02*
X178143000Y-29750000D01*
X178143000Y-33750000D02*
X178143000Y-37850000D01*
X174243000Y-31750000D02*
G75*
G03*
X174243000Y-31750000I-2000000J0D01*
G01*
%TD*%
D11*
%TO.C,D17*%
X68262499Y-56287499D03*
D12*
X68262500Y-48487500D03*
%TD*%
D11*
%TO.C,D50*%
X230187499Y-95974999D03*
D12*
X230187500Y-88175000D03*
%TD*%
D11*
%TO.C,D48*%
X182562499Y-95974999D03*
D12*
X182562500Y-88175000D03*
%TD*%
D11*
%TO.C,D46*%
X96837499Y-94387499D03*
D12*
X96837500Y-86587500D03*
%TD*%
D11*
%TO.C,D40*%
X244474999Y-75337499D03*
D12*
X244475000Y-67537500D03*
%TD*%
D11*
%TO.C,D11*%
X234949999Y-37237499D03*
D12*
X234950000Y-29437500D03*
%TD*%
D11*
%TO.C,D31*%
X63499999Y-75337499D03*
D12*
X63500000Y-67537500D03*
%TD*%
%TO.C,D41*%
X263525000Y-70712500D03*
D11*
X263524999Y-78512499D03*
%TD*%
%TO.C,D45*%
X88037499Y-92074999D03*
D12*
X80237500Y-92075000D03*
%TD*%
D11*
%TO.C,D51*%
X255587499Y-94387499D03*
D12*
X255587500Y-86587500D03*
%TD*%
D11*
%TO.C,D35*%
X146811999Y-75337499D03*
D12*
X146812000Y-67537500D03*
%TD*%
D11*
%TO.C,D14*%
X285749999Y-40348999D03*
D12*
X285750000Y-32549000D03*
%TD*%
D11*
%TO.C,D20*%
X125412499Y-59462499D03*
D12*
X125412500Y-51662500D03*
%TD*%
D11*
%TO.C,D6*%
X130174999Y-40412499D03*
D12*
X130175000Y-32612500D03*
%TD*%
D11*
%TO.C,D13*%
X273049999Y-37237499D03*
D12*
X273050000Y-29437500D03*
%TD*%
D11*
%TO.C,D42*%
X282574999Y-75337499D03*
D12*
X282575000Y-67537500D03*
%TD*%
D11*
%TO.C,D25*%
X239712499Y-56287499D03*
D12*
X239712500Y-48487500D03*
%TD*%
%TO.C,D33*%
X101600000Y-67537500D03*
D11*
X101599999Y-75337499D03*
%TD*%
%TO.C,D28*%
X299211999Y-59589499D03*
D12*
X299212000Y-51789500D03*
%TD*%
D11*
%TO.C,D10*%
X215899999Y-40412499D03*
D12*
X215900000Y-32612500D03*
%TD*%
D11*
%TO.C,D43*%
X306387499Y-76924999D03*
D12*
X306387500Y-69125000D03*
%TD*%
D11*
%TO.C,D19*%
X106362499Y-56287499D03*
D12*
X106362500Y-48487500D03*
%TD*%
D11*
%TO.C,D18*%
X87312499Y-59462499D03*
D12*
X87312500Y-51662500D03*
%TD*%
D11*
%TO.C,D47*%
X144462499Y-95974999D03*
D12*
X144462500Y-88175000D03*
%TD*%
D11*
%TO.C,D26*%
X258762499Y-59462499D03*
D12*
X258762500Y-51662500D03*
%TD*%
D11*
%TO.C,D4*%
X92074999Y-40412499D03*
D12*
X92075000Y-32612500D03*
%TD*%
D11*
%TO.C,D36*%
X156437499Y-77787499D03*
D12*
X164237500Y-77787500D03*
%TD*%
D11*
%TO.C,D3*%
X73024999Y-37237499D03*
D12*
X73025000Y-29437500D03*
%TD*%
D11*
%TO.C,D37*%
X195262499Y-78324999D03*
D12*
X195262500Y-70525000D03*
%TD*%
D11*
%TO.C,D23*%
X201612499Y-56287499D03*
D12*
X201612500Y-48487500D03*
%TD*%
D11*
%TO.C,D9*%
X196849999Y-37237499D03*
D12*
X196850000Y-29437500D03*
%TD*%
D11*
%TO.C,D2*%
X53974999Y-40412499D03*
D12*
X53975000Y-32612500D03*
%TD*%
D11*
%TO.C,D12*%
X253999999Y-40412499D03*
D12*
X254000000Y-32612500D03*
%TD*%
D11*
%TO.C,D30*%
X49212499Y-78512499D03*
D12*
X49212500Y-70712500D03*
%TD*%
D11*
%TO.C,D39*%
X225424999Y-78512499D03*
D12*
X225425000Y-70712500D03*
%TD*%
D11*
%TO.C,D34*%
X120649999Y-78512499D03*
D12*
X120650000Y-70712500D03*
%TD*%
D11*
%TO.C,D7*%
X151510999Y-37237499D03*
D12*
X151511000Y-29437500D03*
%TD*%
D11*
%TO.C,D24*%
X220662499Y-59462499D03*
D12*
X220662500Y-51662500D03*
%TD*%
D11*
%TO.C,D27*%
X277812499Y-56287499D03*
D12*
X277812500Y-48487500D03*
%TD*%
D11*
%TO.C,D49*%
X215899999Y-94387499D03*
D12*
X215900000Y-86587500D03*
%TD*%
D11*
%TO.C,D22*%
X184149999Y-59462499D03*
D12*
X184150000Y-51662500D03*
%TD*%
D11*
%TO.C,D8*%
X180085999Y-40412499D03*
D12*
X180086000Y-32612500D03*
%TD*%
D11*
%TO.C,D44*%
X65087499Y-94574999D03*
D12*
X65087500Y-86775000D03*
%TD*%
D11*
%TO.C,D15*%
X27812999Y-56287499D03*
D12*
X27813000Y-48487500D03*
%TD*%
D11*
%TO.C,D16*%
X49212499Y-59462499D03*
D12*
X49212500Y-51662500D03*
%TD*%
D11*
%TO.C,D21*%
X149224999Y-56287499D03*
D12*
X149225000Y-48487500D03*
%TD*%
D11*
%TO.C,D32*%
X82549999Y-78512499D03*
D12*
X82550000Y-70712500D03*
%TD*%
D11*
%TO.C,D5*%
X111124999Y-37237499D03*
D12*
X111125000Y-29437500D03*
%TD*%
D11*
%TO.C,D1*%
X39687499Y-37237499D03*
D12*
X39687500Y-29437500D03*
%TD*%
D11*
%TO.C,D38*%
X206374999Y-75337499D03*
D12*
X206375000Y-67537500D03*
%TD*%
D11*
%TO.C,D29*%
X20637499Y-75337499D03*
D12*
X20637500Y-67537500D03*
%TD*%
M02*
