M48
; DRILL file {KiCad (7.0.0)} date Fri Mar 10 13:35:53 2023
; FORMAT={-:-/ absolute / inch / decimal}
; #@! TF.CreationDate,2023-03-10T13:35:53+01:00
; #@! TF.GenerationSoftware,Kicad,Pcbnew,(7.0.0)
; #@! TF.FileFunction,NonPlated,1,2,NPTH
FMAT,2
INCH
; #@! TA.AperFunction,NonPlated,NPTH,ComponentDrill
T1C0.0689
; #@! TA.AperFunction,NonPlated,NPTH,ComponentDrill
T2C0.1200
; #@! TA.AperFunction,NonPlated,NPTH,ComponentDrill
T3C0.1570
; #@! TA.AperFunction,NonPlated,NPTH,ComponentDrill
T4C0.1575
%
G90
G05
T1
X0.4875Y-2.75
X0.7687Y-2.0
X0.8625Y-1.25
X0.8875Y-2.75
X1.1687Y-2.0
X1.2625Y-1.25
X1.425Y-2.75
X1.6125Y-2.0
X1.8Y-1.25
X1.825Y-2.75
X1.9875Y-3.5
X2.0125Y-2.0
X2.0813Y-3.5
X2.175Y-2.75
X2.2Y-1.25
X2.3625Y-2.0
X2.3875Y-3.5
X2.4813Y-3.5
X2.55Y-1.25
X2.575Y-2.75
X2.7625Y-2.0
X2.925Y-2.75
X2.925Y-3.5
X2.95Y-1.25
X3.0188Y-3.5
X3.1125Y-2.0
X3.3Y-1.25
X3.325Y-2.75
X3.325Y-3.5
X3.4188Y-3.5
X3.4875Y-3.5
X3.5125Y-2.0
X3.675Y-2.75
X3.7Y-1.25
X3.8625Y-2.0
X3.8875Y-3.5
X4.05Y-1.25
X4.05Y-3.5
X4.075Y-2.75
X4.2625Y-2.0
X4.425Y-2.75
X4.45Y-1.25
X4.45Y-3.5
X4.6125Y-2.0
X4.8Y-1.25
X4.825Y-2.75
X5.0125Y-2.0
X5.175Y-2.75
X5.2Y-1.25
X5.3625Y-3.5
X5.4563Y-2.75
X5.55Y-2.0
X5.575Y-2.75
X5.6437Y-1.25
X5.7625Y-3.5
X5.8563Y-2.75
X5.95Y-2.0
X6.0437Y-1.25
X6.1125Y-2.0
X6.1125Y-2.75
X6.5125Y-2.0
X6.5125Y-2.75
X6.5812Y-1.25
X6.675Y-2.0
X6.7688Y-2.75
X6.8625Y-3.5
X6.9812Y-1.25
X7.05Y-2.75
X7.075Y-2.0
X7.1688Y-2.75
X7.2625Y-3.5
X7.425Y-1.25
X7.45Y-2.75
X7.6125Y-2.0
X7.8Y-2.75
X7.825Y-1.25
X8.0125Y-2.0
X8.175Y-1.25
X8.175Y-3.5
X8.2Y-2.75
X8.3625Y-2.0
X8.55Y-2.75
X8.575Y-1.25
X8.575Y-3.5
X8.7375Y-3.5
X8.7625Y-2.0
X8.925Y-1.25
X8.95Y-2.75
X9.1125Y-2.0
X9.1375Y-3.5
X9.2062Y-3.5
X9.3Y-2.75
X9.3Y-3.5
X9.325Y-1.25
X9.5125Y-2.0
X9.6062Y-3.5
X9.675Y-1.25
X9.7Y-2.75
X9.7Y-3.5
X9.8625Y-2.0
X10.05Y-2.75
X10.075Y-1.25
X10.1437Y-3.5
X10.2375Y-3.5
X10.2625Y-2.0
X10.425Y-1.25
X10.45Y-2.75
X10.5437Y-3.5
X10.6125Y-2.0
X10.6375Y-3.5
X10.8Y-2.75
X10.825Y-1.25
X11.0125Y-2.0
X11.2Y-2.75
X11.3625Y-1.25
X11.4562Y-2.0
X11.4563Y-1.625
X11.7375Y-2.75
X11.7625Y-1.25
X11.8562Y-2.0
X11.8563Y-1.625
X12.1375Y-2.75
T2
X2.9375Y-3.775
X4.4375Y-3.775
X5.5625Y-1.725
X7.0625Y-1.725
X8.1875Y-3.775
X9.6875Y-3.775
X11.9313Y-1.1562
X11.9313Y-2.0938
T3
X0.6875Y-2.75
X0.9687Y-2.0
X1.0625Y-1.25
X1.625Y-2.75
X1.8125Y-2.0
X2.0Y-1.25
X2.1875Y-3.5
X2.2813Y-3.5
X2.375Y-2.75
X2.5625Y-2.0
X2.75Y-1.25
X2.9375Y-3.175
X3.125Y-2.75
X3.125Y-3.5
X3.2188Y-3.5
X3.3125Y-2.0
X3.5Y-1.25
X3.6875Y-3.5
X3.875Y-2.75
X4.0625Y-2.0
X4.25Y-1.25
X4.25Y-3.5
X4.4375Y-3.175
X4.625Y-2.75
X4.8125Y-2.0
X5.0Y-1.25
X5.0938Y-3.175
X5.375Y-2.75
X5.5625Y-2.325
X5.5625Y-3.5
X5.6563Y-2.75
X5.75Y-2.0
X5.8437Y-1.25
X6.0312Y-3.175
X6.3125Y-2.0
X6.3125Y-2.75
X6.5938Y-3.175
X6.7812Y-1.25
X6.875Y-2.0
X6.9688Y-2.75
X7.0625Y-2.325
X7.0625Y-3.5
X7.25Y-2.75
X7.5312Y-3.175
X7.625Y-1.25
X7.8125Y-2.0
X8.0Y-2.75
X8.1875Y-3.175
X8.375Y-1.25
X8.375Y-3.5
X8.5625Y-2.0
X8.75Y-2.75
X8.9375Y-3.5
X9.125Y-1.25
X9.3125Y-2.0
X9.4062Y-3.5
X9.5Y-2.75
X9.5Y-3.5
X9.6875Y-3.175
X9.875Y-1.25
X10.0625Y-2.0
X10.25Y-2.75
X10.3437Y-3.5
X10.4375Y-3.5
X10.625Y-1.25
X10.8125Y-2.0
X11.0Y-2.75
X11.3313Y-1.1562
X11.3313Y-2.0938
X11.5625Y-1.25
X11.6562Y-2.0
X11.6563Y-1.625
X11.9375Y-2.75
T4
X6.3125Y-3.5
T0
M30
