%TF.GenerationSoftware,KiCad,Pcbnew,(7.0.0)*%
%TF.CreationDate,2023-05-17T15:54:46+02:00*%
%TF.ProjectId,NEC,4e45432e-6b69-4636-9164-5f7063625858,rev?*%
%TF.SameCoordinates,Original*%
%TF.FileFunction,Soldermask,Top*%
%TF.FilePolarity,Negative*%
%FSLAX46Y46*%
G04 Gerber Fmt 4.6, Leading zero omitted, Abs format (unit mm)*
G04 Created by KiCad (PCBNEW (7.0.0)) date 2023-05-17 15:54:46*
%MOMM*%
%LPD*%
G01*
G04 APERTURE LIST*
%ADD10R,1.600000X1.600000*%
%ADD11C,1.600000*%
%ADD12C,1.750000*%
%ADD13C,3.987800*%
%ADD14C,3.048000*%
%ADD15C,4.000000*%
%ADD16C,2.200000*%
G04 APERTURE END LIST*
D10*
%TO.C,D17*%
X68262499Y-56287499D03*
D11*
X68262500Y-48487500D03*
%TD*%
D12*
%TO.C,SW23*%
X193357500Y-50800000D03*
D13*
X198437500Y-50800000D03*
D12*
X203517500Y-50800000D03*
%TD*%
D10*
%TO.C,D50*%
X230187499Y-95974999D03*
D11*
X230187500Y-88175000D03*
%TD*%
D10*
%TO.C,D48*%
X182562499Y-95974999D03*
D11*
X182562500Y-88175000D03*
%TD*%
D10*
%TO.C,D46*%
X96837499Y-94387499D03*
D11*
X96837500Y-86587500D03*
%TD*%
D12*
%TO.C,SW3*%
X64770000Y-31750000D03*
D13*
X69850000Y-31750000D03*
D12*
X74930000Y-31750000D03*
%TD*%
D10*
%TO.C,D40*%
X244474999Y-75337499D03*
D11*
X244475000Y-67537500D03*
%TD*%
D12*
%TO.C,SW37*%
X179070000Y-69850000D03*
D13*
X184150000Y-69850000D03*
D12*
X189230000Y-69850000D03*
%TD*%
D10*
%TO.C,D11*%
X234949999Y-37237499D03*
D11*
X234950000Y-29437500D03*
%TD*%
D12*
%TO.C,SW27*%
X269557500Y-50800000D03*
D13*
X274637500Y-50800000D03*
D12*
X279717500Y-50800000D03*
%TD*%
%TO.C,SW49(3)1*%
X221932500Y-88900000D03*
D13*
X227012500Y-88900000D03*
D12*
X232092500Y-88900000D03*
%TD*%
%TO.C,SW4*%
X83820000Y-31750000D03*
D13*
X88900000Y-31750000D03*
D12*
X93980000Y-31750000D03*
%TD*%
D10*
%TO.C,D31*%
X63499999Y-75337499D03*
D11*
X63500000Y-67537500D03*
%TD*%
D10*
%TO.C,D41*%
X263524999Y-78512499D03*
D11*
X263525000Y-70712500D03*
%TD*%
D12*
%TO.C,SW25*%
X231457500Y-50800000D03*
D13*
X236537500Y-50800000D03*
D12*
X241617500Y-50800000D03*
%TD*%
%TO.C,SW2*%
X45720000Y-31750000D03*
D13*
X50800000Y-31750000D03*
D12*
X55880000Y-31750000D03*
%TD*%
%TO.C,SW29*%
X12382500Y-69850000D03*
D13*
X17462500Y-69850000D03*
D12*
X22542500Y-69850000D03*
%TD*%
D10*
%TO.C,D45*%
X88037499Y-92074999D03*
D11*
X80237500Y-92075000D03*
%TD*%
D10*
%TO.C,D51*%
X255587499Y-94387499D03*
D11*
X255587500Y-86587500D03*
%TD*%
D12*
%TO.C,SW41*%
X255270000Y-69850000D03*
D13*
X260350000Y-69850000D03*
D12*
X265430000Y-69850000D03*
%TD*%
%TO.C,SW6*%
X121920000Y-31750000D03*
D13*
X127000000Y-31750000D03*
D12*
X132080000Y-31750000D03*
%TD*%
D10*
%TO.C,D35*%
X146811999Y-75337499D03*
D11*
X146812000Y-67537500D03*
%TD*%
D12*
%TO.C,SW14(iso)1*%
X290989000Y-41275000D03*
D13*
X296069000Y-41275000D03*
D12*
X301149000Y-41275000D03*
%TD*%
D10*
%TO.C,D14*%
X285749999Y-40348999D03*
D11*
X285750000Y-32549000D03*
%TD*%
D10*
%TO.C,D20*%
X125412499Y-59462499D03*
D11*
X125412500Y-51662500D03*
%TD*%
D12*
%TO.C,SW46*%
X102870000Y-88900000D03*
D13*
X107950000Y-88900000D03*
D12*
X113030000Y-88900000D03*
%TD*%
%TO.C,SW40*%
X236220000Y-69850000D03*
D13*
X241300000Y-69850000D03*
D12*
X246380000Y-69850000D03*
%TD*%
D10*
%TO.C,D6*%
X130174999Y-40412499D03*
D11*
X130175000Y-32612500D03*
%TD*%
D12*
%TO.C,SW46(3)1*%
X88582500Y-88900000D03*
D13*
X93662500Y-88900000D03*
D12*
X98742500Y-88900000D03*
%TD*%
%TO.C,SW44(1.25)1*%
X52865000Y-88900000D03*
D13*
X57945000Y-88900000D03*
D12*
X63025000Y-88900000D03*
%TD*%
%TO.C,SW36*%
X155257500Y-69850000D03*
D13*
X160337500Y-69850000D03*
D12*
X165417500Y-69850000D03*
%TD*%
D10*
%TO.C,D13*%
X273049999Y-37237499D03*
D11*
X273050000Y-29437500D03*
%TD*%
D10*
%TO.C,D42*%
X282574999Y-75337499D03*
D11*
X282575000Y-67537500D03*
%TD*%
D10*
%TO.C,D25*%
X239712499Y-56287499D03*
D11*
X239712500Y-48487500D03*
%TD*%
D10*
%TO.C,D33*%
X101599999Y-75337499D03*
D11*
X101600000Y-67537500D03*
%TD*%
D12*
%TO.C,SW22*%
X169545000Y-50800000D03*
D13*
X174625000Y-50800000D03*
D12*
X179705000Y-50800000D03*
%TD*%
%TO.C,SW26*%
X250507500Y-50800000D03*
D13*
X255587500Y-50800000D03*
D12*
X260667500Y-50800000D03*
%TD*%
D10*
%TO.C,D28*%
X299211999Y-59589499D03*
D11*
X299212000Y-51789500D03*
%TD*%
D12*
%TO.C,SW48*%
X174307500Y-88900000D03*
D13*
X179387500Y-88900000D03*
D12*
X184467500Y-88900000D03*
%TD*%
D10*
%TO.C,D10*%
X215899999Y-40412499D03*
D11*
X215900000Y-32612500D03*
%TD*%
D12*
%TO.C,SW30*%
X36195000Y-69850000D03*
D13*
X41275000Y-69850000D03*
D12*
X46355000Y-69850000D03*
%TD*%
D10*
%TO.C,D43*%
X306387499Y-76924999D03*
D11*
X306387500Y-69125000D03*
%TD*%
D12*
%TO.C,SW10*%
X207645000Y-31750000D03*
D13*
X212725000Y-31750000D03*
D12*
X217805000Y-31750000D03*
%TD*%
D10*
%TO.C,D19*%
X106362499Y-56287499D03*
D11*
X106362500Y-48487500D03*
%TD*%
D12*
%TO.C,SW21(3)1*%
X155257500Y-50800000D03*
D13*
X160337500Y-50800000D03*
D12*
X165417500Y-50800000D03*
%TD*%
%TO.C,SW37(1.75)1*%
X171928000Y-69850000D03*
D13*
X177008000Y-69850000D03*
D12*
X182088000Y-69850000D03*
%TD*%
%TO.C,SW35(1.75)1*%
X138590000Y-69850000D03*
D13*
X143670000Y-69850000D03*
D12*
X148750000Y-69850000D03*
%TD*%
%TO.C,SW15*%
X19526000Y-50800000D03*
D13*
X24606000Y-50800000D03*
D12*
X29686000Y-50800000D03*
%TD*%
D10*
%TO.C,D18*%
X87312499Y-59462499D03*
D11*
X87312500Y-51662500D03*
%TD*%
D12*
%TO.C,SW49*%
X207645000Y-88900000D03*
D13*
X212725000Y-88900000D03*
D12*
X217805000Y-88900000D03*
%TD*%
%TO.C,SW20*%
X117157500Y-50800000D03*
D13*
X122237500Y-50800000D03*
D12*
X127317500Y-50800000D03*
%TD*%
%TO.C,SW42*%
X274320000Y-69850000D03*
D13*
X279400000Y-69850000D03*
D12*
X284480000Y-69850000D03*
%TD*%
D10*
%TO.C,D47*%
X144462499Y-95974999D03*
D11*
X144462500Y-88175000D03*
%TD*%
D12*
%TO.C,SW51(1.25)2*%
X257650000Y-88900000D03*
D13*
X262730000Y-88900000D03*
D12*
X267810000Y-88900000D03*
%TD*%
D10*
%TO.C,D26*%
X258762499Y-59462499D03*
D11*
X258762500Y-51662500D03*
%TD*%
D12*
%TO.C,SW8*%
X167163000Y-31750000D03*
D13*
X172243000Y-31750000D03*
D12*
X177323000Y-31750000D03*
%TD*%
%TO.C,SW16*%
X40957500Y-50800000D03*
D13*
X46037500Y-50800000D03*
D12*
X51117500Y-50800000D03*
%TD*%
D14*
%TO.C,S4*%
X246062500Y-95885000D03*
D13*
X246062500Y-80645000D03*
D14*
X207962500Y-95885000D03*
D13*
X207962500Y-80645000D03*
%TD*%
%TO.C,S1*%
X153193750Y-80645000D03*
X129381250Y-80645000D03*
%TD*%
D10*
%TO.C,D4*%
X92074999Y-40412499D03*
D11*
X92075000Y-32612500D03*
%TD*%
D10*
%TO.C,D36*%
X156437499Y-77787499D03*
D11*
X164237500Y-77787500D03*
%TD*%
D10*
%TO.C,D3*%
X73024999Y-37237499D03*
D11*
X73025000Y-29437500D03*
%TD*%
D12*
%TO.C,SW50(1.25)1*%
X233838000Y-88900000D03*
D13*
X238918000Y-88900000D03*
D12*
X243998000Y-88900000D03*
%TD*%
D10*
%TO.C,D37*%
X195262499Y-78324999D03*
D11*
X195262500Y-70525000D03*
%TD*%
D10*
%TO.C,D23*%
X201612499Y-56287499D03*
D11*
X201612500Y-48487500D03*
%TD*%
D12*
%TO.C,SW39*%
X217170000Y-69850000D03*
D13*
X222250000Y-69850000D03*
D12*
X227330000Y-69850000D03*
%TD*%
%TO.C,SW18*%
X79057500Y-50800000D03*
D13*
X84137500Y-50800000D03*
D12*
X89217500Y-50800000D03*
%TD*%
%TO.C,SW50*%
X236220000Y-88900000D03*
D13*
X241300000Y-88900000D03*
D12*
X246380000Y-88900000D03*
%TD*%
%TO.C,SW21*%
X140970000Y-50800000D03*
D13*
X146050000Y-50800000D03*
D12*
X151130000Y-50800000D03*
%TD*%
%TO.C,SW32*%
X74295000Y-69850000D03*
D13*
X79375000Y-69850000D03*
D12*
X84455000Y-69850000D03*
%TD*%
%TO.C,SW45*%
X74295000Y-88900000D03*
D13*
X79375000Y-88900000D03*
D12*
X84455000Y-88900000D03*
%TD*%
%TO.C,SW24*%
X212407500Y-50800000D03*
D13*
X217487500Y-50800000D03*
D12*
X222567500Y-50800000D03*
%TD*%
D10*
%TO.C,D9*%
X196849999Y-37237499D03*
D11*
X196850000Y-29437500D03*
%TD*%
D10*
%TO.C,D2*%
X53974999Y-40412499D03*
D11*
X53975000Y-32612500D03*
%TD*%
D12*
%TO.C,SW44*%
X50482500Y-88900000D03*
D13*
X55562500Y-88900000D03*
D12*
X60642500Y-88900000D03*
%TD*%
D10*
%TO.C,D12*%
X253999999Y-40412499D03*
D11*
X254000000Y-32612500D03*
%TD*%
D12*
%TO.C,SW12*%
X245745000Y-31750000D03*
D13*
X250825000Y-31750000D03*
D12*
X255905000Y-31750000D03*
%TD*%
D10*
%TO.C,D30*%
X49212499Y-78512499D03*
D11*
X49212500Y-70712500D03*
%TD*%
D12*
%TO.C,SW9*%
X188595000Y-31750000D03*
D13*
X193675000Y-31750000D03*
D12*
X198755000Y-31750000D03*
%TD*%
%TO.C,SW1*%
X21907500Y-31750000D03*
D13*
X26987500Y-31750000D03*
D12*
X32067500Y-31750000D03*
%TD*%
D14*
%TO.C,S3*%
X112712500Y-95885000D03*
D13*
X112712500Y-80645000D03*
D14*
X74612500Y-95885000D03*
D13*
X74612500Y-80645000D03*
%TD*%
D10*
%TO.C,D39*%
X225424999Y-78512499D03*
D11*
X225425000Y-70712500D03*
%TD*%
D10*
%TO.C,D34*%
X120649999Y-78512499D03*
D11*
X120650000Y-70712500D03*
%TD*%
D10*
%TO.C,D7*%
X151510999Y-37237499D03*
D11*
X151511000Y-29437500D03*
%TD*%
D10*
%TO.C,D24*%
X220662499Y-59462499D03*
D11*
X220662500Y-51662500D03*
%TD*%
D12*
%TO.C,SW7*%
X143351000Y-31750000D03*
D13*
X148431000Y-31750000D03*
D12*
X153511000Y-31750000D03*
%TD*%
D10*
%TO.C,D27*%
X277812499Y-56287499D03*
D11*
X277812500Y-48487500D03*
%TD*%
D10*
%TO.C,D49*%
X215899999Y-94387499D03*
D11*
X215900000Y-86587500D03*
%TD*%
D10*
%TO.C,D22*%
X184149999Y-59462499D03*
D11*
X184150000Y-51662500D03*
%TD*%
D10*
%TO.C,D8*%
X180085999Y-40412499D03*
D11*
X180086000Y-32612500D03*
%TD*%
D15*
%TO.C,SW44(4)1*%
X160337500Y-88900000D03*
D16*
X156527500Y-86360000D03*
X162877500Y-83820000D03*
%TD*%
D12*
%TO.C,SW19*%
X98107500Y-50800000D03*
D13*
X103187500Y-50800000D03*
D12*
X108267500Y-50800000D03*
%TD*%
D10*
%TO.C,D44*%
X65087499Y-94574999D03*
D11*
X65087500Y-86775000D03*
%TD*%
D10*
%TO.C,D15*%
X27812999Y-56287499D03*
D11*
X27813000Y-48487500D03*
%TD*%
D12*
%TO.C,SW43*%
X298132500Y-69850000D03*
D13*
X303212500Y-69850000D03*
D12*
X308292500Y-69850000D03*
%TD*%
D10*
%TO.C,D16*%
X49212499Y-59462499D03*
D11*
X49212500Y-51662500D03*
%TD*%
D12*
%TO.C,SW47*%
X136207500Y-88900000D03*
D13*
X141287500Y-88900000D03*
D12*
X146367500Y-88900000D03*
%TD*%
D13*
%TO.C,S2*%
X191293750Y-80645000D03*
X167481250Y-80645000D03*
%TD*%
%TO.C,S6*%
X287814000Y-29368750D03*
X287814000Y-53181250D03*
D14*
X303054000Y-29368750D03*
X303054000Y-53181250D03*
%TD*%
D10*
%TO.C,D21*%
X149224999Y-56287499D03*
D11*
X149225000Y-48487500D03*
%TD*%
D12*
%TO.C,SW34*%
X112395000Y-69850000D03*
D13*
X117475000Y-69850000D03*
D12*
X122555000Y-69850000D03*
%TD*%
%TO.C,SW35*%
X131445000Y-69850000D03*
D13*
X136525000Y-69850000D03*
D12*
X141605000Y-69850000D03*
%TD*%
%TO.C,SW38*%
X198120000Y-69850000D03*
D13*
X203200000Y-69850000D03*
D12*
X208280000Y-69850000D03*
%TD*%
D10*
%TO.C,D32*%
X82549999Y-78512499D03*
D11*
X82550000Y-70712500D03*
%TD*%
D12*
%TO.C,SW17*%
X60007500Y-50800000D03*
D13*
X65087500Y-50800000D03*
D12*
X70167500Y-50800000D03*
%TD*%
%TO.C,SW5*%
X102870000Y-31750000D03*
D13*
X107950000Y-31750000D03*
D12*
X113030000Y-31750000D03*
%TD*%
%TO.C,SW51*%
X260032500Y-88900000D03*
D13*
X265112500Y-88900000D03*
D12*
X270192500Y-88900000D03*
%TD*%
%TO.C,SW14*%
X288608000Y-31750000D03*
D13*
X293688000Y-31750000D03*
D12*
X298768000Y-31750000D03*
%TD*%
D10*
%TO.C,D5*%
X111124999Y-37237499D03*
D11*
X111125000Y-29437500D03*
%TD*%
D10*
%TO.C,D1*%
X39687499Y-37237499D03*
D11*
X39687500Y-29437500D03*
%TD*%
D12*
%TO.C,SW13*%
X264795000Y-31750000D03*
D13*
X269875000Y-31750000D03*
D12*
X274955000Y-31750000D03*
%TD*%
%TO.C,SW28*%
X290988500Y-50800000D03*
D13*
X296068500Y-50800000D03*
D12*
X301148500Y-50800000D03*
%TD*%
D10*
%TO.C,D38*%
X206374999Y-75337499D03*
D11*
X206375000Y-67537500D03*
%TD*%
D12*
%TO.C,SW33*%
X93345000Y-69850000D03*
D13*
X98425000Y-69850000D03*
D12*
X103505000Y-69850000D03*
%TD*%
D10*
%TO.C,D29*%
X20637499Y-75337499D03*
D11*
X20637500Y-67537500D03*
%TD*%
D12*
%TO.C,SW45(1.25)1*%
X76677000Y-88900000D03*
D13*
X81757000Y-88900000D03*
D12*
X86837000Y-88900000D03*
%TD*%
D14*
%TO.C,S5*%
X141287500Y-43815000D03*
D13*
X141287500Y-59055000D03*
D14*
X179387500Y-43815000D03*
D13*
X179387500Y-59055000D03*
%TD*%
D12*
%TO.C,SW31*%
X55245000Y-69850000D03*
D13*
X60325000Y-69850000D03*
D12*
X65405000Y-69850000D03*
%TD*%
%TO.C,SW11*%
X226695000Y-31750000D03*
D13*
X231775000Y-31750000D03*
D12*
X236855000Y-31750000D03*
%TD*%
D11*
%TO.C,RZ1*%
X19272500Y-21990000D03*
X19272500Y-24530000D03*
X19272500Y-27070000D03*
X19272500Y-29610000D03*
X19272500Y-32150000D03*
X19272500Y-34690000D03*
X19272500Y-37230000D03*
X19272500Y-39770000D03*
X19272500Y-42310000D03*
X21812500Y-42520000D03*
X24352500Y-42520000D03*
X26892500Y-42520000D03*
X29432500Y-42520000D03*
X31972500Y-42520000D03*
X34512500Y-42310000D03*
X34512500Y-39770000D03*
X34512500Y-37230000D03*
X34512500Y-34690000D03*
X34512500Y-32150000D03*
X34512500Y-29610000D03*
X34512500Y-27070000D03*
X34512500Y-21990000D03*
X34512500Y-24530000D03*
%TD*%
M02*
