M48
; DRILL file {KiCad (7.0.0)} date Sun Mar  5 01:34:03 2023
; FORMAT={-:-/ absolute / inch / decimal}
; #@! TF.CreationDate,2023-03-05T01:34:03+01:00
; #@! TF.GenerationSoftware,Kicad,Pcbnew,(7.0.0)
; #@! TF.FileFunction,Plated,1,2,PTH
FMAT,2
INCH
; #@! TA.AperFunction,Plated,PTH,ViaDrill
T1C0.0157
; #@! TA.AperFunction,Plated,PTH,ComponentDrill
T2C0.0315
; #@! TA.AperFunction,Plated,PTH,ComponentDrill
T3C0.0394
; #@! TA.AperFunction,Plated,PTH,ComponentDrill
T4C0.0591
; #@! TA.AperFunction,Plated,PTH,ComponentDrill
T5C0.0600
; #@! TA.AperFunction,Plated,PTH,ComponentDrill
T6C0.1200
%
G90
G05
T1
X0.658Y-2.3696
X0.6582Y-1.8658
X0.6973Y-2.3701
X0.6974Y-1.8682
X0.7367Y-2.37
X0.742Y-1.87
X0.8473Y-2.3696
X1.45Y-1.55
X1.4893Y-1.5523
X1.5284Y-1.557
X3.48Y-3.75
X5.02Y-1.6425
X5.0655Y-1.6439
X5.1025Y-1.7125
X5.275Y-1.54
X5.695Y-3.4
X5.76Y-3.58
X6.05Y-1.545
X6.05Y-1.736
X6.05Y-2.5861
X6.05Y-2.6432
X6.6Y-1.8715
X6.6Y-2.1665
X6.6021Y-1.545
X6.6021Y-1.648
X6.67Y-3.045
X6.97Y-1.55
X7.2335Y-1.6485
T2
X0.7588Y-0.8657
X0.7588Y-0.9657
X0.7588Y-1.0657
X0.7588Y-1.1657
X0.7588Y-1.2657
X0.7588Y-1.3657
X0.7588Y-1.4657
X0.7588Y-1.5657
X0.7588Y-1.6657
X0.8588Y-1.674
X0.9588Y-1.674
X1.0588Y-1.674
X1.1588Y-1.674
X1.2588Y-1.674
X1.3588Y-0.8657
X1.3588Y-0.9657
X1.3588Y-1.0657
X1.3588Y-1.1657
X1.3588Y-1.2657
X1.3588Y-1.3657
X1.3588Y-1.4657
X1.3588Y-1.5657
X1.3588Y-1.6657
T3
X0.8125Y-2.659
X0.8125Y-2.966
X1.095Y-1.909
X1.095Y-2.216
X1.5625Y-1.159
X1.5625Y-1.466
X1.9375Y-2.034
X1.9375Y-2.341
X1.9375Y-2.784
X1.9375Y-3.091
X2.125Y-1.284
X2.125Y-1.591
X2.5Y-2.659
X2.5Y-2.966
X2.5625Y-3.4163
X2.5625Y-3.7234
X2.6875Y-1.909
X2.6875Y-2.216
X2.875Y-1.159
X2.875Y-1.466
X3.159Y-3.625
X3.25Y-2.784
X3.25Y-3.091
X3.4375Y-2.034
X3.4375Y-2.341
X3.466Y-3.625
X3.625Y-1.284
X3.625Y-1.591
X3.8125Y-3.409
X3.8125Y-3.716
X4.0Y-2.659
X4.0Y-2.966
X4.1875Y-1.909
X4.1875Y-2.216
X4.375Y-1.159
X4.375Y-1.466
X4.75Y-2.784
X4.75Y-3.091
X4.9375Y-2.034
X4.9375Y-2.341
X5.125Y-1.284
X5.125Y-1.591
X5.2766Y-2.4744
X5.2766Y-3.0453
X5.375Y-3.0453
X5.4734Y-2.4744
X5.4734Y-3.0453
X5.6875Y-3.4715
X5.6875Y-3.7785
X5.7453Y-0.9744
X5.7453Y-1.5453
X5.78Y-2.659
X5.78Y-2.966
X5.8437Y-1.5453
X5.875Y-1.909
X5.875Y-2.216
X5.9422Y-0.9744
X5.9422Y-1.5453
X5.965Y-1.159
X5.965Y-1.466
X6.159Y-3.0625
X6.466Y-3.0625
X6.6828Y-0.9744
X6.6828Y-1.5453
X6.7812Y-1.5453
X6.8796Y-0.9744
X6.8796Y-1.5453
X7.09Y-1.284
X7.09Y-1.591
X7.1516Y-2.4744
X7.1516Y-3.0453
X7.1875Y-3.4715
X7.1875Y-3.7785
X7.25Y-2.034
X7.25Y-2.341
X7.25Y-3.0453
X7.3484Y-2.4744
X7.3484Y-3.0453
X7.6875Y-2.7766
X7.6875Y-3.0837
X7.75Y-1.159
X7.75Y-1.466
X7.9375Y-1.909
X7.9375Y-2.216
X8.125Y-2.659
X8.125Y-2.966
X8.5Y-1.284
X8.5Y-1.591
X8.5Y-3.409
X8.5Y-3.716
X8.6875Y-2.034
X8.6875Y-2.341
X8.875Y-2.784
X8.875Y-3.091
X9.0625Y-3.4715
X9.0625Y-3.7785
X9.25Y-1.159
X9.25Y-1.466
X9.4375Y-1.909
X9.4375Y-2.216
X9.625Y-2.659
X9.625Y-2.966
X10.0Y-1.284
X10.0Y-1.591
X10.0625Y-3.409
X10.0625Y-3.716
X10.1875Y-2.034
X10.1875Y-2.341
X10.375Y-2.784
X10.375Y-3.091
X10.75Y-1.159
X10.75Y-1.466
X10.9375Y-1.909
X10.9375Y-2.216
X11.125Y-2.659
X11.125Y-2.966
X11.25Y-1.2815
X11.25Y-1.5885
X11.78Y-2.039
X11.78Y-2.346
X12.0625Y-2.7215
X12.0625Y-3.0285
T4
X6.1625Y-3.4
X6.4125Y-3.3
T5
X0.5375Y-2.65
X0.7875Y-2.55
X0.8187Y-1.9
X0.9125Y-1.15
X1.0687Y-1.8
X1.1625Y-1.05
X1.475Y-2.65
X1.6625Y-1.9
X1.725Y-2.55
X1.85Y-1.15
X1.9125Y-1.8
X2.0375Y-3.4
X2.1Y-1.05
X2.1313Y-3.4
X2.225Y-2.65
X2.2875Y-3.3
X2.3813Y-3.3
X2.4125Y-1.9
X2.475Y-2.55
X2.6Y-1.15
X2.6625Y-1.8
X2.85Y-1.05
X2.975Y-2.65
X2.975Y-3.4
X3.0688Y-3.4
X3.1625Y-1.9
X3.225Y-2.55
X3.225Y-3.3
X3.3188Y-3.3
X3.35Y-1.15
X3.4125Y-1.8
X3.5375Y-3.4
X3.6Y-1.05
X3.725Y-2.65
X3.7875Y-3.3
X3.9125Y-1.9
X3.975Y-2.55
X4.1Y-1.15
X4.1Y-3.4
X4.1625Y-1.8
X4.35Y-1.05
X4.35Y-3.3
X4.475Y-2.65
X4.6625Y-1.9
X4.725Y-2.55
X4.85Y-1.15
X4.9125Y-1.8
X5.1Y-1.05
X5.225Y-2.65
X5.4125Y-3.4
X5.475Y-2.55
X5.5063Y-2.65
X5.6Y-1.9
X5.6625Y-3.3
X5.6937Y-1.15
X5.7563Y-2.55
X5.85Y-1.8
X5.9437Y-1.05
X6.1625Y-1.9
X6.1625Y-2.65
X6.4125Y-1.8
X6.4125Y-2.55
X6.6312Y-1.15
X6.725Y-1.9
X6.8188Y-2.65
X6.8812Y-1.05
X6.9125Y-3.4
X6.975Y-1.8
X7.0688Y-2.55
X7.1Y-2.65
X7.1625Y-3.3
X7.35Y-2.55
X7.475Y-1.15
X7.6625Y-1.9
X7.725Y-1.05
X7.85Y-2.65
X7.9125Y-1.8
X8.1Y-2.55
X8.225Y-1.15
X8.225Y-3.4
X8.4125Y-1.9
X8.475Y-1.05
X8.475Y-3.3
X8.6Y-2.65
X8.6625Y-1.8
X8.7875Y-3.4
X8.85Y-2.55
X8.975Y-1.15
X9.0375Y-3.3
X9.1625Y-1.9
X9.225Y-1.05
X9.2562Y-3.4
X9.35Y-2.65
X9.35Y-3.4
X9.4125Y-1.8
X9.5062Y-3.3
X9.6Y-2.55
X9.6Y-3.3
X9.725Y-1.15
X9.9125Y-1.9
X9.975Y-1.05
X10.1Y-2.65
X10.1625Y-1.8
X10.1937Y-3.4
X10.2875Y-3.4
X10.35Y-2.55
X10.4437Y-3.3
X10.475Y-1.15
X10.5375Y-3.3
X10.6625Y-1.9
X10.725Y-1.05
X10.85Y-2.65
X10.9125Y-1.8
X11.1Y-2.55
X11.4125Y-1.15
X11.5062Y-1.9
X11.5063Y-1.525
X11.6625Y-1.05
X11.7562Y-1.8
X11.7563Y-1.425
X11.7875Y-2.65
X12.0375Y-2.55
T6
X5.0938Y-3.775
X6.0312Y-3.775
X6.5938Y-3.775
X7.5312Y-3.775
T4
G00X5.1545Y-2.7756
M15
G01X5.1545Y-2.7244
M16
G05
G00X5.5955Y-2.7756
M15
G01X5.5955Y-2.7244
M16
G05
G00X5.6233Y-1.2756
M15
G01X5.6233Y-1.2244
M16
G05
G00X6.0642Y-1.2756
M15
G01X6.0642Y-1.2244
M16
G05
G00X6.5607Y-1.2756
M15
G01X6.5607Y-1.2244
M16
G05
G00X7.0017Y-1.2756
M15
G01X7.0017Y-1.2244
M16
G05
G00X7.0295Y-2.7756
M15
G01X7.0295Y-2.7244
M16
G05
G00X7.4705Y-2.7756
M15
G01X7.4705Y-2.7244
M16
G05
T0
M30
