%TF.GenerationSoftware,KiCad,Pcbnew,(7.0.0)*%
%TF.CreationDate,2023-03-05T01:34:00+01:00*%
%TF.ProjectId,NEC,4e45432e-6b69-4636-9164-5f7063625858,rev?*%
%TF.SameCoordinates,Original*%
%TF.FileFunction,Legend,Bot*%
%TF.FilePolarity,Positive*%
%FSLAX46Y46*%
G04 Gerber Fmt 4.6, Leading zero omitted, Abs format (unit mm)*
G04 Created by KiCad (PCBNEW (7.0.0)) date 2023-03-05 01:34:00*
%MOMM*%
%LPD*%
G01*
G04 APERTURE LIST*
%ADD10C,0.150000*%
%ADD11C,0.120000*%
G04 APERTURE END LIST*
D10*
%TO.C,D17*%
X69024500Y-49847500D02*
X67500500Y-49847500D01*
X67500500Y-49847500D02*
X67500500Y-54927500D01*
X67500500Y-54165500D02*
X69024500Y-54165500D01*
X67500500Y-54292500D02*
X69024500Y-54292500D01*
X69024500Y-54419500D02*
X67500500Y-54419500D01*
X67500500Y-54546500D02*
X69024500Y-54546500D01*
X69024500Y-54673500D02*
X67500500Y-54673500D01*
X67500500Y-54800500D02*
X69024500Y-54800500D01*
X69024500Y-54927500D02*
X69024500Y-49847500D01*
X67500500Y-54927500D02*
X69024500Y-54927500D01*
%TO.C,D50*%
X230949500Y-89535000D02*
X229425500Y-89535000D01*
X229425500Y-89535000D02*
X229425500Y-94615000D01*
X229425500Y-93853000D02*
X230949500Y-93853000D01*
X229425500Y-93980000D02*
X230949500Y-93980000D01*
X230949500Y-94107000D02*
X229425500Y-94107000D01*
X229425500Y-94234000D02*
X230949500Y-94234000D01*
X230949500Y-94361000D02*
X229425500Y-94361000D01*
X229425500Y-94488000D02*
X230949500Y-94488000D01*
X230949500Y-94615000D02*
X230949500Y-89535000D01*
X229425500Y-94615000D02*
X230949500Y-94615000D01*
%TO.C,D48*%
X183324500Y-89535000D02*
X181800500Y-89535000D01*
X181800500Y-89535000D02*
X181800500Y-94615000D01*
X181800500Y-93853000D02*
X183324500Y-93853000D01*
X181800500Y-93980000D02*
X183324500Y-93980000D01*
X183324500Y-94107000D02*
X181800500Y-94107000D01*
X181800500Y-94234000D02*
X183324500Y-94234000D01*
X183324500Y-94361000D02*
X181800500Y-94361000D01*
X181800500Y-94488000D02*
X183324500Y-94488000D01*
X183324500Y-94615000D02*
X183324500Y-89535000D01*
X181800500Y-94615000D02*
X183324500Y-94615000D01*
%TO.C,D46*%
X97599500Y-87947500D02*
X96075500Y-87947500D01*
X96075500Y-87947500D02*
X96075500Y-93027500D01*
X96075500Y-92265500D02*
X97599500Y-92265500D01*
X96075500Y-92392500D02*
X97599500Y-92392500D01*
X97599500Y-92519500D02*
X96075500Y-92519500D01*
X96075500Y-92646500D02*
X97599500Y-92646500D01*
X97599500Y-92773500D02*
X96075500Y-92773500D01*
X96075500Y-92900500D02*
X97599500Y-92900500D01*
X97599500Y-93027500D02*
X97599500Y-87947500D01*
X96075500Y-93027500D02*
X97599500Y-93027500D01*
%TO.C,D40*%
X245237000Y-68897500D02*
X243713000Y-68897500D01*
X243713000Y-68897500D02*
X243713000Y-73977500D01*
X243713000Y-73215500D02*
X245237000Y-73215500D01*
X243713000Y-73342500D02*
X245237000Y-73342500D01*
X245237000Y-73469500D02*
X243713000Y-73469500D01*
X243713000Y-73596500D02*
X245237000Y-73596500D01*
X245237000Y-73723500D02*
X243713000Y-73723500D01*
X243713000Y-73850500D02*
X245237000Y-73850500D01*
X245237000Y-73977500D02*
X245237000Y-68897500D01*
X243713000Y-73977500D02*
X245237000Y-73977500D01*
%TO.C,D11*%
X235712000Y-30797500D02*
X234188000Y-30797500D01*
X234188000Y-30797500D02*
X234188000Y-35877500D01*
X234188000Y-35115500D02*
X235712000Y-35115500D01*
X234188000Y-35242500D02*
X235712000Y-35242500D01*
X235712000Y-35369500D02*
X234188000Y-35369500D01*
X234188000Y-35496500D02*
X235712000Y-35496500D01*
X235712000Y-35623500D02*
X234188000Y-35623500D01*
X234188000Y-35750500D02*
X235712000Y-35750500D01*
X235712000Y-35877500D02*
X235712000Y-30797500D01*
X234188000Y-35877500D02*
X235712000Y-35877500D01*
%TO.C,D31*%
X64262000Y-68897500D02*
X62738000Y-68897500D01*
X62738000Y-68897500D02*
X62738000Y-73977500D01*
X62738000Y-73215500D02*
X64262000Y-73215500D01*
X62738000Y-73342500D02*
X64262000Y-73342500D01*
X64262000Y-73469500D02*
X62738000Y-73469500D01*
X62738000Y-73596500D02*
X64262000Y-73596500D01*
X64262000Y-73723500D02*
X62738000Y-73723500D01*
X62738000Y-73850500D02*
X64262000Y-73850500D01*
X64262000Y-73977500D02*
X64262000Y-68897500D01*
X62738000Y-73977500D02*
X64262000Y-73977500D01*
%TO.C,D41*%
X262763000Y-77152500D02*
X264287000Y-77152500D01*
X264287000Y-77152500D02*
X264287000Y-72072500D01*
X262763000Y-77025500D02*
X264287000Y-77025500D01*
X264287000Y-76898500D02*
X262763000Y-76898500D01*
X262763000Y-76771500D02*
X264287000Y-76771500D01*
X264287000Y-76644500D02*
X262763000Y-76644500D01*
X262763000Y-76517500D02*
X264287000Y-76517500D01*
X262763000Y-76390500D02*
X264287000Y-76390500D01*
X262763000Y-72072500D02*
X262763000Y-77152500D01*
X264287000Y-72072500D02*
X262763000Y-72072500D01*
%TO.C,D45*%
X81597500Y-91313000D02*
X81597500Y-92837000D01*
X81597500Y-92837000D02*
X86677500Y-92837000D01*
X85915500Y-92837000D02*
X85915500Y-91313000D01*
X86042500Y-92837000D02*
X86042500Y-91313000D01*
X86169500Y-91313000D02*
X86169500Y-92837000D01*
X86296500Y-92837000D02*
X86296500Y-91313000D01*
X86423500Y-91313000D02*
X86423500Y-92837000D01*
X86550500Y-92837000D02*
X86550500Y-91313000D01*
X86677500Y-91313000D02*
X81597500Y-91313000D01*
X86677500Y-92837000D02*
X86677500Y-91313000D01*
%TO.C,D51*%
X256349500Y-87947500D02*
X254825500Y-87947500D01*
X254825500Y-87947500D02*
X254825500Y-93027500D01*
X254825500Y-92265500D02*
X256349500Y-92265500D01*
X254825500Y-92392500D02*
X256349500Y-92392500D01*
X256349500Y-92519500D02*
X254825500Y-92519500D01*
X254825500Y-92646500D02*
X256349500Y-92646500D01*
X256349500Y-92773500D02*
X254825500Y-92773500D01*
X254825500Y-92900500D02*
X256349500Y-92900500D01*
X256349500Y-93027500D02*
X256349500Y-87947500D01*
X254825500Y-93027500D02*
X256349500Y-93027500D01*
%TO.C,D35*%
X147574000Y-68897500D02*
X146050000Y-68897500D01*
X146050000Y-68897500D02*
X146050000Y-73977500D01*
X146050000Y-73215500D02*
X147574000Y-73215500D01*
X146050000Y-73342500D02*
X147574000Y-73342500D01*
X147574000Y-73469500D02*
X146050000Y-73469500D01*
X146050000Y-73596500D02*
X147574000Y-73596500D01*
X147574000Y-73723500D02*
X146050000Y-73723500D01*
X146050000Y-73850500D02*
X147574000Y-73850500D01*
X147574000Y-73977500D02*
X147574000Y-68897500D01*
X146050000Y-73977500D02*
X147574000Y-73977500D01*
%TO.C,D14*%
X286512000Y-33909000D02*
X284988000Y-33909000D01*
X284988000Y-33909000D02*
X284988000Y-38989000D01*
X284988000Y-38227000D02*
X286512000Y-38227000D01*
X284988000Y-38354000D02*
X286512000Y-38354000D01*
X286512000Y-38481000D02*
X284988000Y-38481000D01*
X284988000Y-38608000D02*
X286512000Y-38608000D01*
X286512000Y-38735000D02*
X284988000Y-38735000D01*
X284988000Y-38862000D02*
X286512000Y-38862000D01*
X286512000Y-38989000D02*
X286512000Y-33909000D01*
X284988000Y-38989000D02*
X286512000Y-38989000D01*
%TO.C,D20*%
X126174500Y-53022500D02*
X124650500Y-53022500D01*
X124650500Y-53022500D02*
X124650500Y-58102500D01*
X124650500Y-57340500D02*
X126174500Y-57340500D01*
X124650500Y-57467500D02*
X126174500Y-57467500D01*
X126174500Y-57594500D02*
X124650500Y-57594500D01*
X124650500Y-57721500D02*
X126174500Y-57721500D01*
X126174500Y-57848500D02*
X124650500Y-57848500D01*
X124650500Y-57975500D02*
X126174500Y-57975500D01*
X126174500Y-58102500D02*
X126174500Y-53022500D01*
X124650500Y-58102500D02*
X126174500Y-58102500D01*
%TO.C,D6*%
X130937000Y-33972500D02*
X129413000Y-33972500D01*
X129413000Y-33972500D02*
X129413000Y-39052500D01*
X129413000Y-38290500D02*
X130937000Y-38290500D01*
X129413000Y-38417500D02*
X130937000Y-38417500D01*
X130937000Y-38544500D02*
X129413000Y-38544500D01*
X129413000Y-38671500D02*
X130937000Y-38671500D01*
X130937000Y-38798500D02*
X129413000Y-38798500D01*
X129413000Y-38925500D02*
X130937000Y-38925500D01*
X130937000Y-39052500D02*
X130937000Y-33972500D01*
X129413000Y-39052500D02*
X130937000Y-39052500D01*
%TO.C,D13*%
X273812000Y-30797500D02*
X272288000Y-30797500D01*
X272288000Y-30797500D02*
X272288000Y-35877500D01*
X272288000Y-35115500D02*
X273812000Y-35115500D01*
X272288000Y-35242500D02*
X273812000Y-35242500D01*
X273812000Y-35369500D02*
X272288000Y-35369500D01*
X272288000Y-35496500D02*
X273812000Y-35496500D01*
X273812000Y-35623500D02*
X272288000Y-35623500D01*
X272288000Y-35750500D02*
X273812000Y-35750500D01*
X273812000Y-35877500D02*
X273812000Y-30797500D01*
X272288000Y-35877500D02*
X273812000Y-35877500D01*
%TO.C,D42*%
X283337000Y-68897500D02*
X281813000Y-68897500D01*
X281813000Y-68897500D02*
X281813000Y-73977500D01*
X281813000Y-73215500D02*
X283337000Y-73215500D01*
X281813000Y-73342500D02*
X283337000Y-73342500D01*
X283337000Y-73469500D02*
X281813000Y-73469500D01*
X281813000Y-73596500D02*
X283337000Y-73596500D01*
X283337000Y-73723500D02*
X281813000Y-73723500D01*
X281813000Y-73850500D02*
X283337000Y-73850500D01*
X283337000Y-73977500D02*
X283337000Y-68897500D01*
X281813000Y-73977500D02*
X283337000Y-73977500D01*
%TO.C,D25*%
X240474500Y-49847500D02*
X238950500Y-49847500D01*
X238950500Y-49847500D02*
X238950500Y-54927500D01*
X238950500Y-54165500D02*
X240474500Y-54165500D01*
X238950500Y-54292500D02*
X240474500Y-54292500D01*
X240474500Y-54419500D02*
X238950500Y-54419500D01*
X238950500Y-54546500D02*
X240474500Y-54546500D01*
X240474500Y-54673500D02*
X238950500Y-54673500D01*
X238950500Y-54800500D02*
X240474500Y-54800500D01*
X240474500Y-54927500D02*
X240474500Y-49847500D01*
X238950500Y-54927500D02*
X240474500Y-54927500D01*
%TO.C,D33*%
X100838000Y-73977500D02*
X102362000Y-73977500D01*
X102362000Y-73977500D02*
X102362000Y-68897500D01*
X100838000Y-73850500D02*
X102362000Y-73850500D01*
X102362000Y-73723500D02*
X100838000Y-73723500D01*
X100838000Y-73596500D02*
X102362000Y-73596500D01*
X102362000Y-73469500D02*
X100838000Y-73469500D01*
X100838000Y-73342500D02*
X102362000Y-73342500D01*
X100838000Y-73215500D02*
X102362000Y-73215500D01*
X100838000Y-68897500D02*
X100838000Y-73977500D01*
X102362000Y-68897500D02*
X100838000Y-68897500D01*
%TO.C,D28*%
X299974000Y-53149500D02*
X298450000Y-53149500D01*
X298450000Y-53149500D02*
X298450000Y-58229500D01*
X298450000Y-57467500D02*
X299974000Y-57467500D01*
X298450000Y-57594500D02*
X299974000Y-57594500D01*
X299974000Y-57721500D02*
X298450000Y-57721500D01*
X298450000Y-57848500D02*
X299974000Y-57848500D01*
X299974000Y-57975500D02*
X298450000Y-57975500D01*
X298450000Y-58102500D02*
X299974000Y-58102500D01*
X299974000Y-58229500D02*
X299974000Y-53149500D01*
X298450000Y-58229500D02*
X299974000Y-58229500D01*
%TO.C,D10*%
X216662000Y-33972500D02*
X215138000Y-33972500D01*
X215138000Y-33972500D02*
X215138000Y-39052500D01*
X215138000Y-38290500D02*
X216662000Y-38290500D01*
X215138000Y-38417500D02*
X216662000Y-38417500D01*
X216662000Y-38544500D02*
X215138000Y-38544500D01*
X215138000Y-38671500D02*
X216662000Y-38671500D01*
X216662000Y-38798500D02*
X215138000Y-38798500D01*
X215138000Y-38925500D02*
X216662000Y-38925500D01*
X216662000Y-39052500D02*
X216662000Y-33972500D01*
X215138000Y-39052500D02*
X216662000Y-39052500D01*
%TO.C,D43*%
X307149500Y-70485000D02*
X305625500Y-70485000D01*
X305625500Y-70485000D02*
X305625500Y-75565000D01*
X305625500Y-74803000D02*
X307149500Y-74803000D01*
X305625500Y-74930000D02*
X307149500Y-74930000D01*
X307149500Y-75057000D02*
X305625500Y-75057000D01*
X305625500Y-75184000D02*
X307149500Y-75184000D01*
X307149500Y-75311000D02*
X305625500Y-75311000D01*
X305625500Y-75438000D02*
X307149500Y-75438000D01*
X307149500Y-75565000D02*
X307149500Y-70485000D01*
X305625500Y-75565000D02*
X307149500Y-75565000D01*
%TO.C,D19*%
X107124500Y-49847500D02*
X105600500Y-49847500D01*
X105600500Y-49847500D02*
X105600500Y-54927500D01*
X105600500Y-54165500D02*
X107124500Y-54165500D01*
X105600500Y-54292500D02*
X107124500Y-54292500D01*
X107124500Y-54419500D02*
X105600500Y-54419500D01*
X105600500Y-54546500D02*
X107124500Y-54546500D01*
X107124500Y-54673500D02*
X105600500Y-54673500D01*
X105600500Y-54800500D02*
X107124500Y-54800500D01*
X107124500Y-54927500D02*
X107124500Y-49847500D01*
X105600500Y-54927500D02*
X107124500Y-54927500D01*
%TO.C,D18*%
X88074500Y-53022500D02*
X86550500Y-53022500D01*
X86550500Y-53022500D02*
X86550500Y-58102500D01*
X86550500Y-57340500D02*
X88074500Y-57340500D01*
X86550500Y-57467500D02*
X88074500Y-57467500D01*
X88074500Y-57594500D02*
X86550500Y-57594500D01*
X86550500Y-57721500D02*
X88074500Y-57721500D01*
X88074500Y-57848500D02*
X86550500Y-57848500D01*
X86550500Y-57975500D02*
X88074500Y-57975500D01*
X88074500Y-58102500D02*
X88074500Y-53022500D01*
X86550500Y-58102500D02*
X88074500Y-58102500D01*
%TO.C,D47*%
X145224500Y-89535000D02*
X143700500Y-89535000D01*
X143700500Y-89535000D02*
X143700500Y-94615000D01*
X143700500Y-93853000D02*
X145224500Y-93853000D01*
X143700500Y-93980000D02*
X145224500Y-93980000D01*
X145224500Y-94107000D02*
X143700500Y-94107000D01*
X143700500Y-94234000D02*
X145224500Y-94234000D01*
X145224500Y-94361000D02*
X143700500Y-94361000D01*
X143700500Y-94488000D02*
X145224500Y-94488000D01*
X145224500Y-94615000D02*
X145224500Y-89535000D01*
X143700500Y-94615000D02*
X145224500Y-94615000D01*
%TO.C,D26*%
X259524500Y-53022500D02*
X258000500Y-53022500D01*
X258000500Y-53022500D02*
X258000500Y-58102500D01*
X258000500Y-57340500D02*
X259524500Y-57340500D01*
X258000500Y-57467500D02*
X259524500Y-57467500D01*
X259524500Y-57594500D02*
X258000500Y-57594500D01*
X258000500Y-57721500D02*
X259524500Y-57721500D01*
X259524500Y-57848500D02*
X258000500Y-57848500D01*
X258000500Y-57975500D02*
X259524500Y-57975500D01*
X259524500Y-58102500D02*
X259524500Y-53022500D01*
X258000500Y-58102500D02*
X259524500Y-58102500D01*
%TO.C,D4*%
X92837000Y-33972500D02*
X91313000Y-33972500D01*
X91313000Y-33972500D02*
X91313000Y-39052500D01*
X91313000Y-38290500D02*
X92837000Y-38290500D01*
X91313000Y-38417500D02*
X92837000Y-38417500D01*
X92837000Y-38544500D02*
X91313000Y-38544500D01*
X91313000Y-38671500D02*
X92837000Y-38671500D01*
X92837000Y-38798500D02*
X91313000Y-38798500D01*
X91313000Y-38925500D02*
X92837000Y-38925500D01*
X92837000Y-39052500D02*
X92837000Y-33972500D01*
X91313000Y-39052500D02*
X92837000Y-39052500D01*
%TO.C,D36*%
X162877500Y-78549500D02*
X162877500Y-77025500D01*
X162877500Y-77025500D02*
X157797500Y-77025500D01*
X158559500Y-77025500D02*
X158559500Y-78549500D01*
X158432500Y-77025500D02*
X158432500Y-78549500D01*
X158305500Y-78549500D02*
X158305500Y-77025500D01*
X158178500Y-77025500D02*
X158178500Y-78549500D01*
X158051500Y-78549500D02*
X158051500Y-77025500D01*
X157924500Y-77025500D02*
X157924500Y-78549500D01*
X157797500Y-78549500D02*
X162877500Y-78549500D01*
X157797500Y-77025500D02*
X157797500Y-78549500D01*
%TO.C,D3*%
X73787000Y-30797500D02*
X72263000Y-30797500D01*
X72263000Y-30797500D02*
X72263000Y-35877500D01*
X72263000Y-35115500D02*
X73787000Y-35115500D01*
X72263000Y-35242500D02*
X73787000Y-35242500D01*
X73787000Y-35369500D02*
X72263000Y-35369500D01*
X72263000Y-35496500D02*
X73787000Y-35496500D01*
X73787000Y-35623500D02*
X72263000Y-35623500D01*
X72263000Y-35750500D02*
X73787000Y-35750500D01*
X73787000Y-35877500D02*
X73787000Y-30797500D01*
X72263000Y-35877500D02*
X73787000Y-35877500D01*
%TO.C,D37*%
X196024500Y-71885000D02*
X194500500Y-71885000D01*
X194500500Y-71885000D02*
X194500500Y-76965000D01*
X194500500Y-76203000D02*
X196024500Y-76203000D01*
X194500500Y-76330000D02*
X196024500Y-76330000D01*
X196024500Y-76457000D02*
X194500500Y-76457000D01*
X194500500Y-76584000D02*
X196024500Y-76584000D01*
X196024500Y-76711000D02*
X194500500Y-76711000D01*
X194500500Y-76838000D02*
X196024500Y-76838000D01*
X196024500Y-76965000D02*
X196024500Y-71885000D01*
X194500500Y-76965000D02*
X196024500Y-76965000D01*
%TO.C,D23*%
X202374500Y-49847500D02*
X200850500Y-49847500D01*
X200850500Y-49847500D02*
X200850500Y-54927500D01*
X200850500Y-54165500D02*
X202374500Y-54165500D01*
X200850500Y-54292500D02*
X202374500Y-54292500D01*
X202374500Y-54419500D02*
X200850500Y-54419500D01*
X200850500Y-54546500D02*
X202374500Y-54546500D01*
X202374500Y-54673500D02*
X200850500Y-54673500D01*
X200850500Y-54800500D02*
X202374500Y-54800500D01*
X202374500Y-54927500D02*
X202374500Y-49847500D01*
X200850500Y-54927500D02*
X202374500Y-54927500D01*
%TO.C,D9*%
X197612000Y-30797500D02*
X196088000Y-30797500D01*
X196088000Y-30797500D02*
X196088000Y-35877500D01*
X196088000Y-35115500D02*
X197612000Y-35115500D01*
X196088000Y-35242500D02*
X197612000Y-35242500D01*
X197612000Y-35369500D02*
X196088000Y-35369500D01*
X196088000Y-35496500D02*
X197612000Y-35496500D01*
X197612000Y-35623500D02*
X196088000Y-35623500D01*
X196088000Y-35750500D02*
X197612000Y-35750500D01*
X197612000Y-35877500D02*
X197612000Y-30797500D01*
X196088000Y-35877500D02*
X197612000Y-35877500D01*
%TO.C,D2*%
X54737000Y-33972500D02*
X53213000Y-33972500D01*
X53213000Y-33972500D02*
X53213000Y-39052500D01*
X53213000Y-38290500D02*
X54737000Y-38290500D01*
X53213000Y-38417500D02*
X54737000Y-38417500D01*
X54737000Y-38544500D02*
X53213000Y-38544500D01*
X53213000Y-38671500D02*
X54737000Y-38671500D01*
X54737000Y-38798500D02*
X53213000Y-38798500D01*
X53213000Y-38925500D02*
X54737000Y-38925500D01*
X54737000Y-39052500D02*
X54737000Y-33972500D01*
X53213000Y-39052500D02*
X54737000Y-39052500D01*
%TO.C,D12*%
X254762000Y-33972500D02*
X253238000Y-33972500D01*
X253238000Y-33972500D02*
X253238000Y-39052500D01*
X253238000Y-38290500D02*
X254762000Y-38290500D01*
X253238000Y-38417500D02*
X254762000Y-38417500D01*
X254762000Y-38544500D02*
X253238000Y-38544500D01*
X253238000Y-38671500D02*
X254762000Y-38671500D01*
X254762000Y-38798500D02*
X253238000Y-38798500D01*
X253238000Y-38925500D02*
X254762000Y-38925500D01*
X254762000Y-39052500D02*
X254762000Y-33972500D01*
X253238000Y-39052500D02*
X254762000Y-39052500D01*
%TO.C,D30*%
X49974500Y-72072500D02*
X48450500Y-72072500D01*
X48450500Y-72072500D02*
X48450500Y-77152500D01*
X48450500Y-76390500D02*
X49974500Y-76390500D01*
X48450500Y-76517500D02*
X49974500Y-76517500D01*
X49974500Y-76644500D02*
X48450500Y-76644500D01*
X48450500Y-76771500D02*
X49974500Y-76771500D01*
X49974500Y-76898500D02*
X48450500Y-76898500D01*
X48450500Y-77025500D02*
X49974500Y-77025500D01*
X49974500Y-77152500D02*
X49974500Y-72072500D01*
X48450500Y-77152500D02*
X49974500Y-77152500D01*
%TO.C,D39*%
X226187000Y-72072500D02*
X224663000Y-72072500D01*
X224663000Y-72072500D02*
X224663000Y-77152500D01*
X224663000Y-76390500D02*
X226187000Y-76390500D01*
X224663000Y-76517500D02*
X226187000Y-76517500D01*
X226187000Y-76644500D02*
X224663000Y-76644500D01*
X224663000Y-76771500D02*
X226187000Y-76771500D01*
X226187000Y-76898500D02*
X224663000Y-76898500D01*
X224663000Y-77025500D02*
X226187000Y-77025500D01*
X226187000Y-77152500D02*
X226187000Y-72072500D01*
X224663000Y-77152500D02*
X226187000Y-77152500D01*
%TO.C,D34*%
X121412000Y-72072500D02*
X119888000Y-72072500D01*
X119888000Y-72072500D02*
X119888000Y-77152500D01*
X119888000Y-76390500D02*
X121412000Y-76390500D01*
X119888000Y-76517500D02*
X121412000Y-76517500D01*
X121412000Y-76644500D02*
X119888000Y-76644500D01*
X119888000Y-76771500D02*
X121412000Y-76771500D01*
X121412000Y-76898500D02*
X119888000Y-76898500D01*
X119888000Y-77025500D02*
X121412000Y-77025500D01*
X121412000Y-77152500D02*
X121412000Y-72072500D01*
X119888000Y-77152500D02*
X121412000Y-77152500D01*
%TO.C,D7*%
X152273000Y-30797500D02*
X150749000Y-30797500D01*
X150749000Y-30797500D02*
X150749000Y-35877500D01*
X150749000Y-35115500D02*
X152273000Y-35115500D01*
X150749000Y-35242500D02*
X152273000Y-35242500D01*
X152273000Y-35369500D02*
X150749000Y-35369500D01*
X150749000Y-35496500D02*
X152273000Y-35496500D01*
X152273000Y-35623500D02*
X150749000Y-35623500D01*
X150749000Y-35750500D02*
X152273000Y-35750500D01*
X152273000Y-35877500D02*
X152273000Y-30797500D01*
X150749000Y-35877500D02*
X152273000Y-35877500D01*
%TO.C,D24*%
X221424500Y-53022500D02*
X219900500Y-53022500D01*
X219900500Y-53022500D02*
X219900500Y-58102500D01*
X219900500Y-57340500D02*
X221424500Y-57340500D01*
X219900500Y-57467500D02*
X221424500Y-57467500D01*
X221424500Y-57594500D02*
X219900500Y-57594500D01*
X219900500Y-57721500D02*
X221424500Y-57721500D01*
X221424500Y-57848500D02*
X219900500Y-57848500D01*
X219900500Y-57975500D02*
X221424500Y-57975500D01*
X221424500Y-58102500D02*
X221424500Y-53022500D01*
X219900500Y-58102500D02*
X221424500Y-58102500D01*
%TO.C,D27*%
X278574500Y-49847500D02*
X277050500Y-49847500D01*
X277050500Y-49847500D02*
X277050500Y-54927500D01*
X277050500Y-54165500D02*
X278574500Y-54165500D01*
X277050500Y-54292500D02*
X278574500Y-54292500D01*
X278574500Y-54419500D02*
X277050500Y-54419500D01*
X277050500Y-54546500D02*
X278574500Y-54546500D01*
X278574500Y-54673500D02*
X277050500Y-54673500D01*
X277050500Y-54800500D02*
X278574500Y-54800500D01*
X278574500Y-54927500D02*
X278574500Y-49847500D01*
X277050500Y-54927500D02*
X278574500Y-54927500D01*
%TO.C,D49*%
X216662000Y-87947500D02*
X215138000Y-87947500D01*
X215138000Y-87947500D02*
X215138000Y-93027500D01*
X215138000Y-92265500D02*
X216662000Y-92265500D01*
X215138000Y-92392500D02*
X216662000Y-92392500D01*
X216662000Y-92519500D02*
X215138000Y-92519500D01*
X215138000Y-92646500D02*
X216662000Y-92646500D01*
X216662000Y-92773500D02*
X215138000Y-92773500D01*
X215138000Y-92900500D02*
X216662000Y-92900500D01*
X216662000Y-93027500D02*
X216662000Y-87947500D01*
X215138000Y-93027500D02*
X216662000Y-93027500D01*
%TO.C,D22*%
X184912000Y-53022500D02*
X183388000Y-53022500D01*
X183388000Y-53022500D02*
X183388000Y-58102500D01*
X183388000Y-57340500D02*
X184912000Y-57340500D01*
X183388000Y-57467500D02*
X184912000Y-57467500D01*
X184912000Y-57594500D02*
X183388000Y-57594500D01*
X183388000Y-57721500D02*
X184912000Y-57721500D01*
X184912000Y-57848500D02*
X183388000Y-57848500D01*
X183388000Y-57975500D02*
X184912000Y-57975500D01*
X184912000Y-58102500D02*
X184912000Y-53022500D01*
X183388000Y-58102500D02*
X184912000Y-58102500D01*
%TO.C,D8*%
X180848000Y-33972500D02*
X179324000Y-33972500D01*
X179324000Y-33972500D02*
X179324000Y-39052500D01*
X179324000Y-38290500D02*
X180848000Y-38290500D01*
X179324000Y-38417500D02*
X180848000Y-38417500D01*
X180848000Y-38544500D02*
X179324000Y-38544500D01*
X179324000Y-38671500D02*
X180848000Y-38671500D01*
X180848000Y-38798500D02*
X179324000Y-38798500D01*
X179324000Y-38925500D02*
X180848000Y-38925500D01*
X180848000Y-39052500D02*
X180848000Y-33972500D01*
X179324000Y-39052500D02*
X180848000Y-39052500D01*
%TO.C,D44*%
X65849500Y-88135000D02*
X64325500Y-88135000D01*
X64325500Y-88135000D02*
X64325500Y-93215000D01*
X64325500Y-92453000D02*
X65849500Y-92453000D01*
X64325500Y-92580000D02*
X65849500Y-92580000D01*
X65849500Y-92707000D02*
X64325500Y-92707000D01*
X64325500Y-92834000D02*
X65849500Y-92834000D01*
X65849500Y-92961000D02*
X64325500Y-92961000D01*
X64325500Y-93088000D02*
X65849500Y-93088000D01*
X65849500Y-93215000D02*
X65849500Y-88135000D01*
X64325500Y-93215000D02*
X65849500Y-93215000D01*
%TO.C,D15*%
X28575000Y-49847500D02*
X27051000Y-49847500D01*
X27051000Y-49847500D02*
X27051000Y-54927500D01*
X27051000Y-54165500D02*
X28575000Y-54165500D01*
X27051000Y-54292500D02*
X28575000Y-54292500D01*
X28575000Y-54419500D02*
X27051000Y-54419500D01*
X27051000Y-54546500D02*
X28575000Y-54546500D01*
X28575000Y-54673500D02*
X27051000Y-54673500D01*
X27051000Y-54800500D02*
X28575000Y-54800500D01*
X28575000Y-54927500D02*
X28575000Y-49847500D01*
X27051000Y-54927500D02*
X28575000Y-54927500D01*
%TO.C,D16*%
X49974500Y-53022500D02*
X48450500Y-53022500D01*
X48450500Y-53022500D02*
X48450500Y-58102500D01*
X48450500Y-57340500D02*
X49974500Y-57340500D01*
X48450500Y-57467500D02*
X49974500Y-57467500D01*
X49974500Y-57594500D02*
X48450500Y-57594500D01*
X48450500Y-57721500D02*
X49974500Y-57721500D01*
X49974500Y-57848500D02*
X48450500Y-57848500D01*
X48450500Y-57975500D02*
X49974500Y-57975500D01*
X49974500Y-58102500D02*
X49974500Y-53022500D01*
X48450500Y-58102500D02*
X49974500Y-58102500D01*
%TO.C,D21*%
X149987000Y-49847500D02*
X148463000Y-49847500D01*
X148463000Y-49847500D02*
X148463000Y-54927500D01*
X148463000Y-54165500D02*
X149987000Y-54165500D01*
X148463000Y-54292500D02*
X149987000Y-54292500D01*
X149987000Y-54419500D02*
X148463000Y-54419500D01*
X148463000Y-54546500D02*
X149987000Y-54546500D01*
X149987000Y-54673500D02*
X148463000Y-54673500D01*
X148463000Y-54800500D02*
X149987000Y-54800500D01*
X149987000Y-54927500D02*
X149987000Y-49847500D01*
X148463000Y-54927500D02*
X149987000Y-54927500D01*
%TO.C,D32*%
X83312000Y-72072500D02*
X81788000Y-72072500D01*
X81788000Y-72072500D02*
X81788000Y-77152500D01*
X81788000Y-76390500D02*
X83312000Y-76390500D01*
X81788000Y-76517500D02*
X83312000Y-76517500D01*
X83312000Y-76644500D02*
X81788000Y-76644500D01*
X81788000Y-76771500D02*
X83312000Y-76771500D01*
X83312000Y-76898500D02*
X81788000Y-76898500D01*
X81788000Y-77025500D02*
X83312000Y-77025500D01*
X83312000Y-77152500D02*
X83312000Y-72072500D01*
X81788000Y-77152500D02*
X83312000Y-77152500D01*
%TO.C,D5*%
X111887000Y-30797500D02*
X110363000Y-30797500D01*
X110363000Y-30797500D02*
X110363000Y-35877500D01*
X110363000Y-35115500D02*
X111887000Y-35115500D01*
X110363000Y-35242500D02*
X111887000Y-35242500D01*
X111887000Y-35369500D02*
X110363000Y-35369500D01*
X110363000Y-35496500D02*
X111887000Y-35496500D01*
X111887000Y-35623500D02*
X110363000Y-35623500D01*
X110363000Y-35750500D02*
X111887000Y-35750500D01*
X111887000Y-35877500D02*
X111887000Y-30797500D01*
X110363000Y-35877500D02*
X111887000Y-35877500D01*
%TO.C,D1*%
X40449500Y-30797500D02*
X38925500Y-30797500D01*
X38925500Y-30797500D02*
X38925500Y-35877500D01*
X38925500Y-35115500D02*
X40449500Y-35115500D01*
X38925500Y-35242500D02*
X40449500Y-35242500D01*
X40449500Y-35369500D02*
X38925500Y-35369500D01*
X38925500Y-35496500D02*
X40449500Y-35496500D01*
X40449500Y-35623500D02*
X38925500Y-35623500D01*
X38925500Y-35750500D02*
X40449500Y-35750500D01*
X40449500Y-35877500D02*
X40449500Y-30797500D01*
X38925500Y-35877500D02*
X40449500Y-35877500D01*
%TO.C,D38*%
X207137000Y-68897500D02*
X205613000Y-68897500D01*
X205613000Y-68897500D02*
X205613000Y-73977500D01*
X205613000Y-73215500D02*
X207137000Y-73215500D01*
X205613000Y-73342500D02*
X207137000Y-73342500D01*
X207137000Y-73469500D02*
X205613000Y-73469500D01*
X205613000Y-73596500D02*
X207137000Y-73596500D01*
X207137000Y-73723500D02*
X205613000Y-73723500D01*
X205613000Y-73850500D02*
X207137000Y-73850500D01*
X207137000Y-73977500D02*
X207137000Y-68897500D01*
X205613000Y-73977500D02*
X207137000Y-73977500D01*
%TO.C,D29*%
X21399500Y-68897500D02*
X19875500Y-68897500D01*
X19875500Y-68897500D02*
X19875500Y-73977500D01*
X19875500Y-73215500D02*
X21399500Y-73215500D01*
X19875500Y-73342500D02*
X21399500Y-73342500D01*
X21399500Y-73469500D02*
X19875500Y-73469500D01*
X19875500Y-73596500D02*
X21399500Y-73596500D01*
X21399500Y-73723500D02*
X19875500Y-73723500D01*
X19875500Y-73850500D02*
X21399500Y-73850500D01*
X21399500Y-73977500D02*
X21399500Y-68897500D01*
X19875500Y-73977500D02*
X21399500Y-73977500D01*
D11*
%TO.C,RZ1*%
X35892500Y-43900000D02*
X17892500Y-43900000D01*
X35892500Y-20400000D02*
X35892500Y-43900000D01*
X17892500Y-43900000D02*
X17892500Y-20400000D01*
X17892500Y-20400000D02*
X35892500Y-20400000D01*
%TD*%
M02*
